<svg width="250" height="28" viewBox="0 0 250 28" fill="none" xmlns="http://www.w3.org/2000/svg">
<path d="M3.6 13.24C3.2 13.1333 2.74667 12.92 2.24 12.6C1.73333 12.2533 1.29333 11.8267 0.92 11.32C0.546667 10.7867 0.36 10.2 0.36 9.56C0.36 9.26667 0.413333 8.97333 0.52 8.68C0.52 8.65333 0.52 8.56 0.52 8.4C0.546667 8.24 0.573333 8.10667 0.6 8C0.893333 6.66667 1.57333 5.57333 2.64 4.72C3.70667 3.84 5.01333 3.16 6.56 2.68C8.10667 2.2 9.72 1.90667 11.4 1.8C11.72 1.77333 12.04 1.76 12.36 1.76C12.68 1.76 13 1.76 13.32 1.76C15.1867 1.76 17.04 1.88 18.88 2.12C20.72 2.36 22.3867 2.6 23.88 2.84C25.4 3.05333 26.6 3.17333 27.48 3.2C28.2267 2.42667 28.7733 2 29.12 1.92C29.2 1.89333 29.32 1.88 29.48 1.88C29.7733 1.88 30.04 1.96 30.28 2.12C30.52 2.25333 30.64 2.45333 30.64 2.72C30.64 2.96 30.5333 3.18667 30.32 3.4C30.1333 3.58666 29.84 3.81333 29.44 4.08C29.04 4.34667 28.6533 4.68 28.28 5.08C27.7467 5.61333 27.2667 6.21333 26.84 6.88C26.4133 7.54667 26.2 8.18667 26.2 8.8C26.2 9.25333 26.3067 9.64 26.52 9.96C26.5733 10.0133 26.6 10.0667 26.6 10.12C26.6 10.3333 26.4933 10.44 26.28 10.44C26.0933 10.44 25.8933 10.3333 25.68 10.12C25.4667 9.85333 25.36 9.28 25.36 8.4C25.36 7.86667 25.4133 7.29333 25.52 6.68C25.6267 6.06667 25.8133 5.50667 26.08 5C26.1867 4.81333 26.3333 4.6 26.52 4.36C26.7333 4.09333 26.8933 3.89333 27 3.76C25.08 3.73333 23.1333 3.62667 21.16 3.44C19.1867 3.25333 17.24 3.16 15.32 3.16C14.4133 3.16 13.4 3.22667 12.28 3.36C11.16 3.46667 10.0133 3.65333 8.84 3.92C7.66667 4.18667 6.57333 4.57333 5.56 5.08C4.54667 5.56 3.68 6.16 2.96 6.88C2.24 7.6 1.77333 8.46667 1.56 9.48C1.53333 9.58667 1.50667 9.68 1.48 9.76C1.48 9.84 1.48 9.92 1.48 10C1.48 10.5067 1.62667 10.9333 1.92 11.28C2.24 11.6267 2.6 11.92 3 12.16C3.4 12.3733 3.70667 12.5733 3.92 12.76C4.10667 12.8667 4.2 12.9733 4.2 13.08C4.2 13.1867 4.13333 13.2533 4 13.28C3.89333 13.3067 3.76 13.2933 3.6 13.24ZM7.56 26.08C7.48 26.08 7.32 26.0533 7.08 26C6.84 25.9467 6.61333 25.88 6.4 25.8C6.18667 25.72 6.06667 25.6267 6.04 25.52C5.96 25.0133 6.08 24.2933 6.4 23.36C6.74667 22.4 7.18667 21.3467 7.72 20.2C8.28 19.0533 8.85333 17.9067 9.44 16.76C10.0533 15.6133 10.6133 14.5867 11.12 13.68C11.6267 12.7467 12 12.04 12.24 11.56C12.4533 11.1067 12.56 10.7333 12.56 10.44C12.56 10.3067 12.5467 10.2133 12.52 10.16C12.52 10.08 12.5067 10.0133 12.48 9.96C12.5333 9.64 12.7333 9.21333 13.08 8.68C13.4267 8.14667 13.8533 7.61333 14.36 7.08C14.8667 6.54667 15.4 6.10667 15.96 5.76C16.5467 5.38667 17.1067 5.2 17.64 5.2C17.8 5.2 18.08 5.26667 18.48 5.4C18.88 5.50667 19.24 5.69333 19.56 5.96C19.88 6.22667 20.0133 6.57333 19.96 7C19.7733 6.86667 19.6133 6.8 19.48 6.8C18.8667 6.8 18.2 7.09333 17.48 7.68C16.76 8.26667 16.0133 9.05333 15.24 10.04C14.4933 11.0267 13.7467 12.1067 13 13.28C12.28 14.4533 11.6 15.64 10.96 16.84C10.32 18.0133 9.76 19.1067 9.28 20.12C8.8 21.1067 8.42667 21.9067 8.16 22.52C8.05333 22.7867 7.97333 23.0267 7.92 23.24C7.86667 23.4533 7.84 23.6267 7.84 23.76C7.84 24.1333 7.97333 24.32 8.24 24.32C8.42667 24.32 8.62667 24.2533 8.84 24.12C9.05333 23.96 9.25333 23.7733 9.44 23.56C9.73333 23.2133 10 22.8933 10.24 22.6C10.48 22.28 10.6933 22.1467 10.88 22.2C10.9067 22.2267 10.92 22.2667 10.92 22.32C10.92 22.48 10.84 22.6667 10.68 22.88C10.52 23.0933 10.4267 23.2133 10.4 23.24C10.1867 23.5067 9.92 23.8667 9.6 24.32C9.30667 24.7733 8.98667 25.1733 8.64 25.52C8.29333 25.8933 7.93333 26.08 7.56 26.08ZM21.3557 25.52C21.1424 25.52 21.0891 25.4267 21.1957 25.24C21.2491 25.08 21.3824 24.68 21.5957 24.04C21.8357 23.4 22.1157 22.6267 22.4357 21.72C22.7557 20.8133 23.0891 19.8933 23.4357 18.96C23.7824 18 24.1024 17.1467 24.3957 16.4C24.2091 16.64 23.9157 16.9867 23.5157 17.44C23.1424 17.8933 22.7424 18.3733 22.3157 18.88C21.8891 19.3867 21.4891 19.8267 21.1157 20.2C21.0357 20.28 20.9824 20.32 20.9557 20.32C20.8757 20.32 20.8357 20.24 20.8357 20.08C20.8357 19.76 20.9157 19.4667 21.0757 19.2C21.6624 18.4533 22.2224 17.76 22.7557 17.12C23.3157 16.4533 23.8224 15.8267 24.2757 15.24C24.0091 15.08 23.8757 14.88 23.8757 14.64C23.8757 14.2667 24.0624 14.08 24.4357 14.08C24.5957 14.08 24.7157 14.1067 24.7957 14.16C24.8224 14.1867 24.8491 14.2 24.8757 14.2C24.9024 14.2 24.9291 14.2267 24.9557 14.28C25.0891 14.0933 25.1957 13.92 25.2757 13.76C25.3824 13.6 25.4757 13.4267 25.5557 13.24C25.6624 13 25.8757 12.5467 26.1957 11.88C26.5424 11.1867 26.9691 10.3733 27.4757 9.44C27.9824 8.50667 28.5557 7.54667 29.1957 6.56C29.8624 5.54667 30.5691 4.61333 31.3157 3.76C32.0891 2.88 32.8757 2.17333 33.6757 1.64C34.5024 1.10667 35.3424 0.839999 36.1958 0.839999C36.3024 0.839999 36.4091 0.853332 36.5157 0.879998C36.6224 0.879998 36.7291 0.893331 36.8358 0.919998C37.5024 1.05333 37.9691 1.29333 38.2358 1.64C38.5024 1.96 38.6357 2.34667 38.6357 2.8C38.6357 3.12 38.5691 3.46666 38.4358 3.84C38.3291 4.18667 38.1691 4.53333 37.9558 4.88C37.4224 5.81333 36.7157 6.76 35.8358 7.72C34.9557 8.65333 33.9691 9.58667 32.8758 10.52C31.8091 11.4267 30.7291 12.32 29.6358 13.2C28.5691 14.0533 27.5691 14.8667 26.6357 15.64C25.9957 17 25.5024 18.2133 25.1557 19.28C24.8091 20.32 24.5424 21.16 24.3557 21.8C24.6491 21.4267 25.0891 20.8933 25.6757 20.2C26.2624 19.5067 26.9291 18.76 27.6757 17.96C28.4224 17.16 29.1957 16.4 29.9957 15.68C30.7957 14.9333 31.5557 14.3333 32.2757 13.88C32.9957 13.4 33.6091 13.16 34.1157 13.16C34.7558 13.16 35.0758 13.4933 35.0758 14.16C35.0758 14.8 34.8491 15.5067 34.3957 16.28C33.9424 17.0533 33.5691 17.7067 33.2757 18.24C32.9024 19.0133 32.5957 19.76 32.3557 20.48C32.1424 21.1733 32.0091 21.7467 31.9557 22.2C31.9291 22.3067 31.9157 22.4133 31.9157 22.52C31.9157 22.6 31.9157 22.6933 31.9157 22.8C31.9157 23.8667 32.2891 24.4 33.0357 24.4C33.4357 24.4 33.9691 24.16 34.6358 23.68C35.3024 23.2 35.9824 22.6267 36.6758 21.96C37.3691 21.2933 37.9957 20.6533 38.5557 20.04C39.1424 19.4 39.5424 18.92 39.7557 18.6C39.8358 18.52 39.9291 18.48 40.0358 18.48C40.1424 18.48 40.2224 18.52 40.2758 18.6C40.3291 18.68 40.3291 18.7867 40.2758 18.92C40.0091 19.3733 39.5958 19.9467 39.0357 20.64C38.4757 21.3067 37.8491 21.9867 37.1557 22.68C36.4624 23.3467 35.7824 23.92 35.1157 24.4C34.7691 24.6667 34.3157 24.8933 33.7557 25.08C33.2224 25.2933 32.6891 25.4 32.1557 25.4C31.7291 25.4 31.3157 25.2933 30.9157 25.08C30.5157 24.8667 30.2224 24.4667 30.0357 23.88C29.9557 23.64 29.9158 23.3067 29.9158 22.88C29.9158 22.7467 29.9158 22.6133 29.9158 22.48C29.9158 22.32 29.9291 22.16 29.9557 22C30.0624 21.1467 30.3424 20.2533 30.7957 19.32C31.2757 18.36 31.7157 17.5067 32.1157 16.76C32.2224 16.5467 32.3024 16.36 32.3557 16.2C32.4357 16.04 32.4757 15.9067 32.4757 15.8C32.4757 15.5867 32.3824 15.48 32.1957 15.48C32.0091 15.48 31.7157 15.6 31.3157 15.84C30.9157 16.08 30.3824 16.4933 29.7157 17.08C29.1291 17.5867 28.5024 18.2533 27.8357 19.08C27.1957 19.88 26.5557 20.7067 25.9157 21.56C25.3024 22.4133 24.7557 23.1467 24.2757 23.76C23.8224 24.3733 23.5024 24.7333 23.3157 24.84C23.1824 24.92 22.8757 25.0533 22.3957 25.24C21.9157 25.4267 21.5691 25.52 21.3557 25.52ZM27.3957 13.84C28.4624 13.12 29.6224 12.2267 30.8757 11.16C32.1291 10.0667 33.3024 8.90667 34.3957 7.68C35.5157 6.42667 36.3691 5.24 36.9557 4.12C37.2757 3.50667 37.4357 3 37.4357 2.6C37.4357 2.14667 37.2357 1.92 36.8358 1.92C36.6491 1.92 36.4358 1.97333 36.1958 2.08C35.9558 2.16 35.6758 2.32 35.3558 2.56C33.5691 3.94667 32.0624 5.6 30.8358 7.52C29.6091 9.41333 28.4624 11.52 27.3957 13.84ZM42.4709 25.6C41.2709 25.6 40.2309 25.32 39.3509 24.76C38.4709 24.2 38.0309 23.3467 38.0309 22.2C38.0309 21.5867 38.2175 20.84 38.5909 19.96C38.8575 19.3467 39.3509 18.64 40.0709 17.84C40.7909 17.04 41.6309 16.2667 42.5909 15.52C43.5509 14.7467 44.5242 14.12 45.5109 13.64C46.4975 13.1333 47.3909 12.88 48.1909 12.88C48.4842 12.88 48.7509 12.92 48.9909 13C49.4442 13.16 49.7509 13.4133 49.9109 13.76C50.0975 14.1067 50.1909 14.4667 50.1909 14.84C50.1909 15.1867 50.1375 15.52 50.0309 15.84C49.9242 16.16 49.7909 16.44 49.6309 16.68C49.1509 17.4 48.4575 18.04 47.5509 18.6C46.6709 19.16 45.7642 19.6 44.8309 19.92C43.9242 20.24 43.1775 20.4267 42.5909 20.48H42.5109C42.1642 20.48 41.9909 20.3733 41.9909 20.16C41.9909 20.0267 42.0975 19.96 42.3109 19.96C42.9509 19.9067 43.7509 19.6133 44.7109 19.08C45.6975 18.52 46.5642 17.9467 47.3109 17.36C47.6309 17.0933 48.0042 16.72 48.4309 16.24C48.8842 15.76 49.1109 15.2933 49.1109 14.84C49.1109 14.36 48.8842 14.12 48.4309 14.12C48.1909 14.12 47.9375 14.1733 47.6709 14.28C47.4309 14.3867 47.2309 14.4667 47.0709 14.52C46.2975 14.8933 45.4442 15.48 44.5109 16.28C43.5775 17.0533 42.7242 17.9333 41.9509 18.92C41.2042 19.88 40.6842 20.8533 40.3909 21.84C40.3109 22.0533 40.2575 22.2667 40.2309 22.48C40.2042 22.6667 40.1909 22.8533 40.1909 23.04C40.1909 23.68 40.3909 24.1333 40.7909 24.4C41.2175 24.6667 41.7242 24.8 42.3109 24.8C43.1909 24.8 44.0975 24.6133 45.0309 24.24C45.9642 23.84 46.8709 23.3333 47.7509 22.72C48.6309 22.1067 49.4309 21.4533 50.1509 20.76C50.8975 20.04 51.5242 19.3467 52.0309 18.68C52.1109 18.5733 52.2042 18.52 52.3109 18.52C52.4175 18.4933 52.4842 18.5067 52.5109 18.56C52.6175 18.5867 52.6709 18.6667 52.6709 18.8C52.6709 18.9067 52.6442 19.0133 52.5909 19.12C51.8442 20.16 50.9375 21.1733 49.8709 22.16C48.8309 23.1467 47.6709 23.9733 46.3909 24.64C45.1375 25.28 43.8309 25.6 42.4709 25.6ZM67.9783 27.48C66.8583 27.48 65.765 27.3867 64.6983 27.2C63.6316 27.0133 62.6583 26.6933 61.7783 26.24C60.8983 25.8133 60.1916 25.2133 59.6583 24.44C59.1516 23.64 58.8983 22.6267 58.8983 21.4C58.8983 20.0667 59.2183 18.9467 59.8583 18.04C60.4983 17.1067 61.3383 16.36 62.3783 15.8C63.4183 15.2133 64.5383 14.76 65.7383 14.44C66.965 14.12 68.1516 13.8933 69.2983 13.76C70.4716 13.6 71.4983 13.5067 72.3783 13.48C71.5783 12.5467 70.8583 11.3733 70.2183 9.96C69.5783 8.54667 69.2583 7.17333 69.2583 5.84C69.2583 5.36 69.3116 4.89333 69.4183 4.44C69.525 3.98667 69.6983 3.56 69.9383 3.16C70.205 2.68 70.6316 2.28 71.2183 1.96C71.805 1.61333 72.445 1.34667 73.1383 1.16C73.8316 0.973332 74.4716 0.879998 75.0583 0.879998C76.045 0.879998 76.8583 1.14667 77.4983 1.68C78.1383 2.18667 78.7383 2.70667 79.2983 3.24C79.4316 3.37333 79.5916 3.53333 79.7783 3.72C79.9916 3.88 80.2183 4 80.4583 4.08C80.565 4.10667 80.685 4.13333 80.8183 4.16C80.9783 4.16 81.1116 4.2 81.2183 4.28C81.4316 4.46667 81.6183 4.74667 81.7783 5.12C81.965 5.49333 82.1116 5.82667 82.2183 6.12C82.3783 6.54667 82.4583 7.10667 82.4583 7.8C82.4583 8.33333 82.3916 8.82667 82.2583 9.28C82.1516 9.73333 81.9783 9.96 81.7383 9.96C81.605 9.96 81.4316 9.84 81.2183 9.6C80.8983 9.22667 80.6716 8.73333 80.5383 8.12C80.405 7.48 80.205 6.90667 79.9383 6.4C79.6183 5.70667 79.2716 5.06667 78.8983 4.48C78.525 3.89333 78.0716 3.38667 77.5383 2.96C77.325 2.72 77.005 2.48 76.5783 2.24C76.1783 2 75.7116 1.88 75.1783 1.88C74.7783 1.88 74.445 1.94667 74.1783 2.08C73.245 2.45333 72.5783 3.06667 72.1783 3.92C71.805 4.77333 71.6183 5.70667 71.6183 6.72C71.6183 7.94667 71.8183 9.17333 72.2183 10.4C72.6183 11.6 73.0716 12.52 73.5783 13.16C73.7116 13.32 74.0316 13.4267 74.5383 13.48C75.0716 13.5067 75.445 13.5467 75.6583 13.6C76.085 13.6267 76.3916 13.72 76.5783 13.88C76.765 14.04 76.8583 14.2133 76.8583 14.4C76.8583 14.6933 76.685 14.9467 76.3383 15.16C76.205 15.2933 75.9783 15.36 75.6583 15.36C75.205 15.36 74.6983 15.28 74.1383 15.12C73.5783 14.9333 73.1116 14.8 72.7383 14.72C71.9383 14.7467 71.0183 14.88 69.9783 15.12C68.9383 15.36 67.8716 15.7067 66.7783 16.16C65.7116 16.5867 64.7116 17.12 63.7783 17.76C62.8716 18.4 62.125 19.1333 61.5383 19.96C60.9783 20.76 60.685 21.64 60.6583 22.6C60.6316 23.6667 61.045 24.5867 61.8983 25.36C62.7516 26.1333 64.3116 26.52 66.5783 26.52C67.645 26.52 68.7916 26.4267 70.0183 26.24C71.245 26.0533 72.445 25.8 73.6183 25.48C74.8183 25.1867 75.925 24.8667 76.9383 24.52C77.9516 24.1733 78.7783 23.8267 79.4183 23.48C79.925 23.24 80.5383 22.88 81.2583 22.4C81.9783 21.8933 82.685 21.32 83.3783 20.68C84.0983 20.04 84.685 19.3867 85.1383 18.72C85.6183 18.0267 85.8583 17.36 85.8583 16.72C85.8583 16.6667 85.8583 16.6 85.8583 16.52C85.8583 16.44 85.845 16.3733 85.8183 16.32C85.7916 16.2133 85.845 16.16 85.9783 16.16C86.1116 16.16 86.205 16.1867 86.2583 16.24C86.6316 16.7733 86.8183 17.36 86.8183 18C86.8183 18.8533 86.5116 19.6933 85.8983 20.52C85.3116 21.3467 84.605 22.0933 83.7783 22.76C82.9516 23.4267 82.1916 23.9467 81.4983 24.32C80.6716 24.8 79.6716 25.2267 78.4983 25.6C77.3516 26 76.1383 26.3333 74.8583 26.6C73.605 26.8933 72.3783 27.1067 71.1783 27.24C69.9783 27.4 68.9116 27.48 67.9783 27.48ZM90.3231 25.4C89.2031 25.4 88.4165 25.12 87.9631 24.56C87.5365 24 87.3231 23.3067 87.3231 22.48C87.3231 21.7067 87.4965 20.7333 87.8431 19.56C88.2165 18.3867 88.6965 17.12 89.2831 15.76C89.8698 14.4 90.4965 13.0533 91.1631 11.72C91.8565 10.36 92.5365 9.12 93.2031 8C93.8965 6.85333 94.4965 5.93333 95.0031 5.24C95.5098 4.57333 96.0565 3.90666 96.6431 3.24C97.2298 2.57333 97.8831 2.01333 98.6031 1.56C99.3231 1.10667 100.136 0.879998 101.043 0.879998C101.656 0.879998 102.176 1.05333 102.603 1.4C103.056 1.72 103.283 2.21333 103.283 2.88C103.283 3.14667 103.23 3.45333 103.123 3.8C103.043 4.14667 102.896 4.50667 102.683 4.88C101.056 7.70667 99.1098 10.32 96.8431 12.72C94.6031 15.12 92.2298 17.3467 89.7231 19.4C89.6165 19.8 89.5098 20.16 89.4031 20.48C89.3231 20.8 89.2565 21.0533 89.2031 21.24C89.1765 21.3733 89.1631 21.52 89.1631 21.68C89.1631 21.8133 89.1631 21.9467 89.1631 22.08C89.1631 22.72 89.2698 23.28 89.4831 23.76C89.6965 24.24 90.0565 24.48 90.5631 24.48C91.0431 24.48 91.6298 24.2533 92.3231 23.8C93.0431 23.32 93.7631 22.7467 94.4831 22.08C95.2031 21.3867 95.8565 20.72 96.4431 20.08C97.0298 19.44 97.4431 18.9467 97.6831 18.6C97.7631 18.52 97.8431 18.48 97.9231 18.48C98.0298 18.48 98.1098 18.5333 98.1631 18.64C98.2431 18.7467 98.2431 18.88 98.1631 19.04C97.8965 19.4933 97.4698 20.0533 96.8831 20.72C96.2965 21.3867 95.6431 22.0667 94.9231 22.76C94.2031 23.4267 93.5098 24.0133 92.8431 24.52C92.0165 25.1067 91.1765 25.4 90.3231 25.4ZM90.2831 17.8C91.2965 17.1067 92.3498 16.2133 93.4431 15.12C94.5365 14 95.6031 12.7867 96.6431 11.48C97.7098 10.1733 98.6698 8.88 99.5231 7.6C100.403 6.32 101.11 5.16 101.643 4.12C101.803 3.82667 101.91 3.57333 101.963 3.36C102.043 3.12 102.083 2.90667 102.083 2.72C102.083 2.21333 101.87 1.96 101.443 1.96C101.07 1.96 100.603 2.16 100.043 2.56C98.6031 3.68 97.2698 5.12 96.0431 6.88C94.8165 8.61333 93.7231 10.44 92.7631 12.36C91.8031 14.28 90.9765 16.0933 90.2831 17.8ZM100.37 25.6C99.1701 25.6 98.1301 25.32 97.2501 24.76C96.3701 24.2 95.9301 23.3467 95.9301 22.2C95.9301 21.5867 96.1168 20.84 96.4901 19.96C96.7568 19.3467 97.2501 18.64 97.9701 17.84C98.6901 17.04 99.5301 16.2667 100.49 15.52C101.45 14.7467 102.423 14.12 103.41 13.64C104.397 13.1333 105.29 12.88 106.09 12.88C106.383 12.88 106.65 12.92 106.89 13C107.343 13.16 107.65 13.4133 107.81 13.76C107.997 14.1067 108.09 14.4667 108.09 14.84C108.09 15.1867 108.037 15.52 107.93 15.84C107.823 16.16 107.69 16.44 107.53 16.68C107.05 17.4 106.357 18.04 105.45 18.6C104.57 19.16 103.663 19.6 102.73 19.92C101.823 20.24 101.077 20.4267 100.49 20.48H100.41C100.063 20.48 99.8901 20.3733 99.8901 20.16C99.8901 20.0267 99.9968 19.96 100.21 19.96C100.85 19.9067 101.65 19.6133 102.61 19.08C103.597 18.52 104.463 17.9467 105.21 17.36C105.53 17.0933 105.903 16.72 106.33 16.24C106.783 15.76 107.01 15.2933 107.01 14.84C107.01 14.36 106.783 14.12 106.33 14.12C106.09 14.12 105.837 14.1733 105.57 14.28C105.33 14.3867 105.13 14.4667 104.97 14.52C104.197 14.8933 103.343 15.48 102.41 16.28C101.477 17.0533 100.623 17.9333 99.8501 18.92C99.1035 19.88 98.5835 20.8533 98.2901 21.84C98.2101 22.0533 98.1568 22.2667 98.1301 22.48C98.1035 22.6667 98.0901 22.8533 98.0901 23.04C98.0901 23.68 98.2901 24.1333 98.6901 24.4C99.1168 24.6667 99.6235 24.8 100.21 24.8C101.09 24.8 101.997 24.6133 102.93 24.24C103.863 23.84 104.77 23.3333 105.65 22.72C106.53 22.1067 107.33 21.4533 108.05 20.76C108.797 20.04 109.423 19.3467 109.93 18.68C110.01 18.5733 110.103 18.52 110.21 18.52C110.317 18.4933 110.383 18.5067 110.41 18.56C110.517 18.5867 110.57 18.6667 110.57 18.8C110.57 18.9067 110.543 19.0133 110.49 19.12C109.743 20.16 108.837 21.1733 107.77 22.16C106.73 23.1467 105.57 23.9733 104.29 24.64C103.037 25.28 101.73 25.6 100.37 25.6ZM108.416 25.52C108.202 25.52 108.136 25.4267 108.216 25.24C108.322 25.0533 108.509 24.5867 108.776 23.84C109.069 23.0667 109.389 22.16 109.736 21.12C110.109 20.08 110.469 19.08 110.816 18.12C110.549 18.52 110.256 18.9067 109.936 19.28C109.642 19.6533 109.389 19.96 109.176 20.2C109.096 20.28 109.042 20.32 109.016 20.32C108.936 20.32 108.896 20.24 108.896 20.08C108.896 19.76 108.976 19.4667 109.136 19.2C109.696 18.48 110.122 17.92 110.416 17.52C110.709 17.0933 110.949 16.72 111.136 16.4C111.349 16.0533 111.562 15.6667 111.776 15.24C111.829 14.9467 111.922 14.5867 112.056 14.16C112.216 13.7333 112.576 13.52 113.136 13.52C113.962 13.52 114.376 13.6933 114.376 14.04C114.376 14.1467 114.349 14.2667 114.296 14.4C114.242 14.5067 114.189 14.6267 114.136 14.76C113.816 15.48 113.469 16.3067 113.096 17.24C112.722 18.1733 112.376 19.0533 112.056 19.88C111.762 20.7067 111.536 21.3467 111.376 21.8C111.669 21.4267 112.109 20.9067 112.696 20.24C113.282 19.5467 113.949 18.8 114.696 18C115.469 17.1733 116.256 16.4 117.056 15.68C117.882 14.9333 118.656 14.32 119.376 13.84C120.096 13.36 120.709 13.12 121.216 13.12C121.829 13.12 122.136 13.4667 122.136 14.16C122.136 14.6933 121.922 15.3867 121.496 16.24C121.309 16.64 121.056 17.1867 120.736 17.88C120.416 18.5467 120.162 19.0533 119.976 19.4C120.456 18.9733 121.002 18.5067 121.616 18C122.229 17.4667 122.869 16.9733 123.536 16.52C124.229 16.0667 124.869 15.7333 125.456 15.52C125.589 15.4667 125.856 15.3867 126.256 15.28C126.656 15.1467 127.002 15.08 127.296 15.08C127.696 15.08 127.896 15.2133 127.896 15.48C127.896 15.6667 127.802 15.8667 127.616 16.08C127.162 16.7733 126.749 17.52 126.376 18.32C126.029 19.0933 125.749 19.8267 125.536 20.52C125.322 21.2133 125.189 21.7733 125.136 22.2C125.109 22.3067 125.096 22.4133 125.096 22.52C125.096 22.6 125.096 22.6933 125.096 22.8C125.096 23.8667 125.442 24.4 126.136 24.4C126.562 24.4 127.109 24.1733 127.776 23.72C128.442 23.24 129.122 22.6667 129.816 22C130.509 21.3067 131.136 20.6533 131.696 20.04C132.282 19.4 132.682 18.92 132.896 18.6C132.976 18.52 133.056 18.48 133.136 18.48C133.242 18.48 133.322 18.52 133.376 18.6C133.456 18.68 133.469 18.7867 133.416 18.92C133.176 19.3733 132.762 19.9467 132.176 20.64C131.616 21.3067 130.976 21.9867 130.256 22.68C129.562 23.3467 128.882 23.92 128.216 24.4C127.869 24.6667 127.429 24.8933 126.896 25.08C126.389 25.2933 125.869 25.4 125.336 25.4C124.856 25.4 124.416 25.2933 124.016 25.08C123.642 24.8667 123.362 24.4667 123.176 23.88C123.096 23.64 123.056 23.3333 123.056 22.96C123.056 22.3733 123.136 21.7067 123.296 20.96C123.456 20.2133 123.629 19.5867 123.816 19.08C123.949 18.7067 124.122 18.2933 124.336 17.84C124.576 17.36 124.789 16.96 124.976 16.64C124.149 16.96 123.349 17.44 122.576 18.08C121.802 18.72 121.096 19.3733 120.456 20.04C119.842 20.68 119.322 21.2133 118.896 21.64C118.789 21.9333 118.576 22.1733 118.256 22.36C117.962 22.5467 117.682 22.64 117.416 22.64C117.016 22.64 116.816 22.4667 116.816 22.12C116.816 21.9867 116.856 21.8267 116.936 21.64C117.202 21 117.496 20.3467 117.816 19.68C118.162 18.9867 118.469 18.36 118.736 17.8C119.029 17.24 119.229 16.8533 119.336 16.64C119.549 16.2667 119.656 15.9733 119.656 15.76C119.656 15.5467 119.562 15.44 119.376 15.44C119.189 15.44 118.882 15.56 118.456 15.8C118.029 16.04 117.469 16.4667 116.776 17.08C116.216 17.5867 115.602 18.2533 114.936 19.08C114.269 19.88 113.629 20.7067 113.016 21.56C112.402 22.4133 111.856 23.1467 111.376 23.76C110.922 24.3733 110.602 24.7333 110.416 24.84C110.256 24.92 109.936 25.0533 109.456 25.24C109.002 25.4267 108.656 25.52 108.416 25.52ZM135.648 25.6C134.448 25.6 133.408 25.32 132.528 24.76C131.648 24.2 131.208 23.3467 131.208 22.2C131.208 21.5867 131.395 20.84 131.768 19.96C132.035 19.3467 132.528 18.64 133.248 17.84C133.968 17.04 134.808 16.2667 135.768 15.52C136.728 14.7467 137.701 14.12 138.688 13.64C139.675 13.1333 140.568 12.88 141.368 12.88C141.661 12.88 141.928 12.92 142.168 13C142.621 13.16 142.928 13.4133 143.088 13.76C143.275 14.1067 143.368 14.4667 143.368 14.84C143.368 15.1867 143.315 15.52 143.208 15.84C143.101 16.16 142.968 16.44 142.808 16.68C142.328 17.4 141.635 18.04 140.728 18.6C139.848 19.16 138.941 19.6 138.008 19.92C137.101 20.24 136.355 20.4267 135.768 20.48H135.688C135.341 20.48 135.168 20.3733 135.168 20.16C135.168 20.0267 135.275 19.96 135.488 19.96C136.128 19.9067 136.928 19.6133 137.888 19.08C138.875 18.52 139.741 17.9467 140.488 17.36C140.808 17.0933 141.181 16.72 141.608 16.24C142.061 15.76 142.288 15.2933 142.288 14.84C142.288 14.36 142.061 14.12 141.608 14.12C141.368 14.12 141.115 14.1733 140.848 14.28C140.608 14.3867 140.408 14.4667 140.248 14.52C139.475 14.8933 138.621 15.48 137.688 16.28C136.755 17.0533 135.901 17.9333 135.128 18.92C134.381 19.88 133.861 20.8533 133.568 21.84C133.488 22.0533 133.435 22.2667 133.408 22.48C133.381 22.6667 133.368 22.8533 133.368 23.04C133.368 23.68 133.568 24.1333 133.968 24.4C134.395 24.6667 134.901 24.8 135.488 24.8C136.368 24.8 137.275 24.6133 138.208 24.24C139.141 23.84 140.048 23.3333 140.928 22.72C141.808 22.1067 142.608 21.4533 143.328 20.76C144.075 20.04 144.701 19.3467 145.208 18.68C145.288 18.5733 145.381 18.52 145.488 18.52C145.595 18.4933 145.661 18.5067 145.688 18.56C145.795 18.5867 145.848 18.6667 145.848 18.8C145.848 18.9067 145.821 19.0133 145.768 19.12C145.021 20.16 144.115 21.1733 143.048 22.16C142.008 23.1467 140.848 23.9733 139.568 24.64C138.315 25.28 137.008 25.6 135.648 25.6ZM142.693 25.52C142.507 25.52 142.453 25.4267 142.533 25.24C142.613 25.08 142.76 24.72 142.973 24.16C143.187 23.5733 143.427 22.88 143.693 22.08C143.987 21.28 144.28 20.4533 144.573 19.6C144.867 18.7467 145.133 17.9467 145.373 17.2C145.64 16.4533 145.853 15.8667 146.013 15.44C146.067 15.28 146.12 15.0533 146.173 14.76C146.227 14.44 146.333 14.16 146.493 13.92C146.68 13.6533 146.987 13.52 147.413 13.52C148.213 13.52 148.613 13.7067 148.613 14.08C148.613 14.2133 148.547 14.44 148.413 14.76C148.093 15.48 147.747 16.3067 147.373 17.24C147 18.1733 146.667 19.0533 146.373 19.88C146.08 20.7067 145.853 21.3467 145.693 21.8C145.96 21.4267 146.387 20.8933 146.973 20.2C147.587 19.5067 148.267 18.76 149.013 17.96C149.76 17.16 150.533 16.3867 151.333 15.64C152.16 14.8933 152.92 14.2933 153.613 13.84C154.333 13.36 154.947 13.12 155.453 13.12C156.093 13.12 156.413 13.4667 156.413 14.16C156.413 14.4 156.347 14.76 156.213 15.24C155.973 15.9067 155.667 16.56 155.293 17.2C154.92 17.8133 154.587 18.4667 154.293 19.16C153.787 20.4133 153.493 21.4267 153.413 22.2C153.387 22.3067 153.373 22.4133 153.373 22.52C153.373 22.6 153.373 22.6933 153.373 22.8C153.373 23.8667 153.733 24.4 154.453 24.4C154.853 24.4 155.387 24.16 156.053 23.68C156.72 23.2 157.4 22.6267 158.093 21.96C158.813 21.2933 159.453 20.6533 160.013 20.04C160.573 19.4 160.96 18.92 161.173 18.6C161.253 18.52 161.333 18.48 161.413 18.48C161.52 18.48 161.6 18.52 161.653 18.6C161.733 18.68 161.747 18.7867 161.693 18.92C161.453 19.3733 161.04 19.9467 160.453 20.64C159.893 21.3067 159.267 21.9867 158.573 22.68C157.88 23.3467 157.2 23.92 156.533 24.4C156.133 24.6667 155.64 24.9067 155.053 25.12C154.467 25.3333 153.88 25.4267 153.293 25.4C152.547 25.32 152.013 25.0667 151.693 24.64C151.373 24.1867 151.213 23.6533 151.213 23.04C151.213 22.32 151.347 21.56 151.613 20.76C151.907 19.9333 152.227 19.16 152.573 18.44C152.92 17.72 153.2 17.1733 153.413 16.8C153.627 16.3733 153.733 16.04 153.733 15.8C153.733 15.5867 153.64 15.48 153.453 15.48C153.267 15.48 152.987 15.6 152.613 15.84C152.24 16.08 151.733 16.4933 151.093 17.08C150.507 17.5867 149.88 18.2533 149.213 19.08C148.547 19.88 147.893 20.7067 147.253 21.56C146.64 22.4133 146.093 23.1467 145.613 23.76C145.16 24.3733 144.84 24.7333 144.653 24.84C144.52 24.92 144.213 25.0533 143.733 25.24C143.28 25.4267 142.933 25.52 142.693 25.52ZM162.097 25.4C161.617 25.4 161.177 25.2933 160.777 25.08C160.404 24.8667 160.124 24.4667 159.937 23.88C159.911 23.8 159.884 23.72 159.857 23.64C159.857 23.56 159.857 23.4667 159.857 23.36C159.857 22.8267 159.977 22.16 160.217 21.36C160.457 20.56 160.751 19.7867 161.097 19.04C160.937 19.2533 160.751 19.52 160.537 19.84C160.324 20.1333 160.017 20.52 159.617 21C159.511 21.1067 159.391 21.16 159.257 21.16C159.071 21.16 158.977 21.0533 158.977 20.84C158.977 20.68 159.031 20.5467 159.137 20.44C159.831 19.56 160.444 18.7733 160.977 18.08C161.537 17.3867 161.951 16.8 162.217 16.32C162.217 16.2667 162.297 16.1067 162.457 15.84C162.617 15.5467 162.831 15.1467 163.097 14.64C162.884 14.6667 162.697 14.6933 162.537 14.72C162.404 14.72 162.284 14.72 162.177 14.72C161.991 14.72 161.831 14.64 161.697 14.48C161.564 14.32 161.551 14.12 161.657 13.88C161.791 13.5067 162.084 13.2933 162.537 13.24C162.991 13.1867 163.391 13.1467 163.737 13.12C163.764 13.0667 163.817 13.04 163.897 13.04C164.217 12.4533 164.524 11.88 164.817 11.32C165.111 10.76 165.351 10.2933 165.537 9.92C165.751 9.54667 165.857 9.34667 165.857 9.32C166.391 8.46667 166.737 7.90667 166.897 7.64C167.057 7.34667 167.271 7.17333 167.537 7.12C167.831 7.09333 168.137 7.10667 168.457 7.16C168.804 7.21333 169.031 7.33333 169.137 7.52C169.217 7.62667 169.257 7.76 169.257 7.92C169.257 8.16 169.204 8.4 169.097 8.64C168.991 8.85333 168.884 9.02667 168.777 9.16C168.671 9.34667 168.524 9.48 168.337 9.56C168.177 9.61333 168.031 9.77333 167.897 10.04C167.631 10.5467 167.337 11.0933 167.017 11.68C166.697 12.2667 166.364 12.8267 166.017 13.36L166.497 13.32C167.137 13.2667 167.737 13.2 168.297 13.12C168.884 13.04 169.551 13.0133 170.297 13.04C170.431 13.04 170.564 13.0667 170.697 13.12C170.857 13.1467 170.937 13.2 170.937 13.28C170.937 13.3867 170.591 13.5333 169.897 13.72C169.631 13.8267 169.044 13.9467 168.137 14.08C167.257 14.1867 166.351 14.2933 165.417 14.4C165.151 14.9067 164.911 15.3333 164.697 15.68C164.484 16 164.337 16.24 164.257 16.4C163.671 17.6267 163.137 18.7467 162.657 19.76C162.204 20.7467 161.951 21.56 161.897 22.2C161.871 22.3067 161.857 22.4133 161.857 22.52C161.857 22.6 161.857 22.6933 161.857 22.8C161.857 23.8667 162.204 24.4 162.897 24.4C163.324 24.4 163.871 24.1733 164.537 23.72C165.204 23.24 165.884 22.6667 166.577 22C167.271 21.3067 167.897 20.6533 168.457 20.04C169.044 19.4 169.444 18.92 169.657 18.6C169.737 18.52 169.817 18.48 169.897 18.48C170.004 18.48 170.084 18.52 170.137 18.6C170.217 18.68 170.231 18.7867 170.177 18.92C169.937 19.3733 169.524 19.9467 168.937 20.64C168.377 21.3067 167.737 21.9867 167.017 22.68C166.324 23.3467 165.644 23.92 164.977 24.4C164.631 24.6667 164.191 24.8933 163.657 25.08C163.151 25.2933 162.631 25.4 162.097 25.4ZM185.655 26.28C185.468 26.3067 185.281 26.32 185.095 26.32C184.908 26.32 184.721 26.32 184.535 26.32C182.855 26.32 181.455 26.04 180.335 25.48C179.241 24.9467 178.415 24.2533 177.855 23.4C177.321 22.52 177.055 21.6 177.055 20.64C177.055 19.44 177.455 18.2667 178.255 17.12C179.081 15.9733 180.268 15.1067 181.815 14.52C182.721 14.1733 183.588 13.96 184.415 13.88C185.268 13.8 186.055 13.76 186.775 13.76C187.495 13.7333 188.095 13.6933 188.575 13.64C187.935 13.08 187.281 12.4 186.615 11.6C185.948 10.7733 185.388 9.88 184.935 8.92C184.481 7.96 184.255 7.01333 184.255 6.08C184.255 5.65333 184.308 5.24 184.415 4.84C184.521 4.44 184.708 4.06667 184.975 3.72C185.268 3.32 185.721 2.98666 186.335 2.72C186.975 2.42667 187.668 2.2 188.415 2.04C189.188 1.88 189.895 1.8 190.535 1.8C191.361 1.8 192.175 2 192.975 2.4C193.801 2.8 194.468 3.30667 194.975 3.92C195.188 3.65333 195.428 3.41333 195.695 3.2C195.961 2.98667 196.241 2.86667 196.535 2.84C196.588 2.81333 196.668 2.8 196.775 2.8C196.988 2.8 197.161 2.85333 197.295 2.96C197.455 3.04 197.535 3.16 197.535 3.32C197.535 3.45333 197.455 3.58667 197.295 3.72C197.188 3.88 196.988 4.05333 196.695 4.24C196.428 4.42667 196.148 4.66667 195.855 4.96C195.481 5.30667 195.148 5.70667 194.855 6.16C194.561 6.58667 194.415 7.02667 194.415 7.48C194.415 7.74667 194.495 8 194.655 8.24C194.681 8.26667 194.695 8.30667 194.695 8.36C194.695 8.49333 194.615 8.56 194.455 8.56C194.321 8.56 194.188 8.49333 194.055 8.36C193.921 8.17333 193.855 7.77333 193.855 7.16C193.855 6.78667 193.895 6.4 193.975 6C194.055 5.57333 194.188 5.18667 194.375 4.84C194.401 4.81333 194.415 4.78667 194.415 4.76C194.441 4.70667 194.468 4.66667 194.495 4.64C194.068 4.16 193.468 3.72 192.695 3.32C191.948 2.92 191.175 2.72 190.375 2.72C190.081 2.72 189.788 2.76 189.495 2.84C188.588 3.02667 187.961 3.45333 187.615 4.12C187.268 4.78667 187.095 5.54667 187.095 6.4C187.095 7.17333 187.201 7.98667 187.415 8.84C187.655 9.69333 187.948 10.48 188.295 11.2C188.641 11.92 188.988 12.5067 189.335 12.96C189.655 13.3867 189.815 13.6933 189.815 13.88C189.815 14.0933 189.575 14.24 189.095 14.32C187.868 14.4533 186.668 14.7333 185.495 15.16C184.348 15.5867 183.428 15.9733 182.735 16.32C181.508 16.9333 180.588 17.68 179.975 18.56C179.361 19.44 179.055 20.3067 179.055 21.16C179.055 22.3067 179.561 23.32 180.575 24.2C181.588 25.0533 183.028 25.48 184.895 25.48C185.081 25.48 185.268 25.48 185.455 25.48C185.641 25.48 185.828 25.4667 186.015 25.44C187.641 25.28 189.188 24.8933 190.655 24.28C192.148 23.6667 193.468 22.7867 194.615 21.64C195.761 20.4667 196.601 18.9733 197.135 17.16C197.268 16.7867 197.348 16.4 197.375 16C197.428 15.6 197.455 15.2267 197.455 14.88C197.455 14.5067 197.428 14.1733 197.375 13.88C197.348 13.5867 197.295 13.3733 197.215 13.24C196.441 13.6933 195.628 14.1467 194.775 14.6C193.948 15.0267 193.188 15.4667 192.495 15.92C192.121 16.1333 191.615 16.5333 190.975 17.12C190.361 17.68 189.815 18.2933 189.335 18.96C188.855 19.6267 188.615 20.24 188.615 20.8C188.615 21.2 188.775 21.52 189.095 21.76C189.308 21.92 189.415 22.08 189.415 22.24C189.415 22.32 189.348 22.36 189.215 22.36C189.108 22.36 189.001 22.3333 188.895 22.28C188.548 22.1733 188.281 21.8933 188.095 21.44C187.935 20.9867 187.855 20.4667 187.855 19.88C187.855 19.0533 188.015 18.32 188.335 17.68C188.628 17.12 189.041 16.64 189.575 16.24C190.135 15.8133 190.801 15.3733 191.575 14.92C192.535 14.36 193.561 13.8133 194.655 13.28C195.748 12.7467 196.775 12.24 197.735 11.76C198.695 11.2533 199.481 10.76 200.095 10.28C200.708 9.77333 201.015 9.26667 201.015 8.76C201.015 8.68 201.015 8.6 201.015 8.52C201.015 8.44 200.988 8.36 200.935 8.28C200.935 8.25333 200.921 8.24 200.895 8.24C200.895 8.21333 200.895 8.18667 200.895 8.16C200.895 8.05333 200.935 8 201.015 8C201.148 8 201.268 8.09333 201.375 8.28C201.481 8.52 201.535 8.78667 201.535 9.08C201.535 9.8 201.175 10.48 200.455 11.12C199.735 11.76 198.841 12.3867 197.775 13C198.068 13.32 198.388 13.8133 198.735 14.48C199.081 15.1467 199.255 15.8267 199.255 16.52C199.255 16.6267 199.255 16.7333 199.255 16.84C199.255 16.92 199.241 17.0133 199.215 17.12C198.948 18.6667 198.335 20 197.375 21.12C196.441 22.2133 195.308 23.1333 193.975 23.88C192.641 24.6 191.241 25.1467 189.775 25.52C188.335 25.92 186.961 26.1733 185.655 26.28ZM219.759 26.84C218.373 26.84 217.093 26.6 215.919 26.12C214.773 25.6667 213.853 24.96 213.159 24C212.493 23.0133 212.159 21.76 212.159 20.24C212.159 19.3867 212.279 18.4667 212.519 17.48C212.893 15.9067 213.506 14.3333 214.359 12.76C215.239 11.1867 216.279 9.70667 217.479 8.32C218.706 6.93333 220.039 5.70667 221.479 4.64C222.919 3.54667 224.399 2.69333 225.919 2.08C227.466 1.44 228.999 1.12 230.519 1.12C230.973 1.12 231.439 1.16 231.919 1.24C232.986 1.42667 233.773 1.82667 234.279 2.44C234.813 3.02667 235.079 3.70667 235.079 4.48C235.079 5.38667 234.786 6.29333 234.199 7.2C233.613 8.10667 232.839 8.97333 231.879 9.8C230.946 10.6 229.919 11.32 228.799 11.96C227.706 12.6 226.626 13.12 225.559 13.52C224.493 13.92 223.546 14.1467 222.719 14.2C222.213 14.2267 221.959 14.08 221.959 13.76C221.959 13.6 222.039 13.44 222.199 13.28C222.386 13.0933 222.639 12.9867 222.959 12.96C225.039 12.7733 226.973 12.1467 228.759 11.08C230.573 9.98667 231.959 8.50667 232.919 6.64C233.133 6.24 233.293 5.84 233.399 5.44C233.533 5.01333 233.599 4.61333 233.599 4.24C233.599 3.65333 233.426 3.16 233.079 2.76C232.759 2.33333 232.186 2.12 231.359 2.12C230.453 2.12 229.386 2.4 228.159 2.96C226.933 3.49333 225.639 4.25333 224.279 5.24C222.946 6.22667 221.626 7.4 220.319 8.76C219.039 10.0933 217.879 11.56 216.839 13.16C215.826 14.7333 215.039 16.4 214.479 18.16C214.133 19.2267 213.959 20.2133 213.959 21.12C213.959 22.7467 214.519 23.9467 215.639 24.72C216.759 25.4667 218.213 25.84 219.999 25.84C221.546 25.84 223.239 25.5733 225.079 25.04C226.946 24.5067 228.759 23.6933 230.519 22.6C232.279 21.48 233.759 20.0667 234.959 18.36C235.039 18.2533 235.133 18.2 235.239 18.2C235.346 18.2 235.439 18.2533 235.519 18.36C235.626 18.4667 235.639 18.5733 235.559 18.68C234.173 20.6 232.573 22.16 230.759 23.36C228.973 24.56 227.119 25.44 225.199 26C223.279 26.56 221.466 26.84 219.759 26.84ZM236.998 25.44C236.252 25.44 235.598 25.2667 235.038 24.92C234.105 24.36 233.638 23.3467 233.638 21.88C233.638 21.2667 233.745 20.56 233.958 19.76C234.145 19.0933 234.478 18.3733 234.958 17.6C235.438 16.8 235.998 16.04 236.638 15.32C237.305 14.6 238.025 14.0133 238.798 13.56C239.572 13.1067 240.345 12.88 241.118 12.88C241.438 12.88 241.718 12.92 241.958 13C242.278 13.1067 242.545 13.3067 242.758 13.6C242.998 13.8667 243.118 14.2133 243.118 14.64C243.118 15.0933 242.998 15.3467 242.758 15.4C242.545 15.4533 242.438 15.4 242.438 15.24C242.438 15.1867 242.438 15.1333 242.438 15.08C242.465 15.0267 242.478 14.9867 242.478 14.96C242.478 14.7467 242.412 14.56 242.278 14.4C242.172 14.2133 241.958 14.12 241.638 14.12C241.212 14.12 240.678 14.3467 240.038 14.8C239.425 15.2533 238.785 15.8667 238.118 16.64C237.478 17.3867 236.905 18.2133 236.398 19.12C235.918 20.0267 235.598 20.9333 235.438 21.84C235.412 21.9733 235.385 22.1067 235.358 22.24C235.358 22.3467 235.358 22.4667 235.358 22.6C235.358 23.2133 235.492 23.7333 235.758 24.16C236.052 24.56 236.505 24.76 237.118 24.76C237.865 24.76 238.585 24.48 239.278 23.92C239.972 23.3333 240.585 22.64 241.118 21.84C241.678 21.04 242.092 20.3333 242.358 19.72C242.572 19.24 242.718 18.8267 242.798 18.48C242.878 18.1333 242.918 17.84 242.918 17.6C242.918 17.3867 242.892 17.2 242.838 17.04C242.812 16.88 242.772 16.7467 242.718 16.64C242.665 16.48 242.638 16.36 242.638 16.28C242.638 16.0667 242.718 15.8933 242.878 15.76C243.065 15.6267 243.252 15.56 243.438 15.56C243.598 15.56 243.772 15.6133 243.958 15.72C244.172 15.7733 244.465 15.8133 244.838 15.84C245.212 15.8667 245.612 15.88 246.038 15.88C246.492 15.88 246.945 15.8667 247.398 15.84C247.878 15.8133 248.292 15.76 248.638 15.68C248.692 15.6533 248.772 15.64 248.878 15.64C249.065 15.64 249.158 15.6933 249.158 15.8C249.158 15.9067 249.065 16 248.878 16.08C247.945 16.5067 247.105 16.7333 246.358 16.76C245.638 16.7867 245.012 16.8 244.478 16.8C244.532 17.4667 244.385 18.1867 244.038 18.96C243.692 19.7067 243.332 20.3733 242.958 20.96C242.505 21.6267 241.985 22.3067 241.398 23C240.812 23.6933 240.158 24.28 239.438 24.76C238.718 25.2133 237.905 25.44 236.998 25.44Z" fill="white"/>
</svg>
