<svg width="313" height="35" viewBox="0 0 313 35" fill="none" xmlns="http://www.w3.org/2000/svg">
<path d="M4.5 16.3C4 16.1667 3.43333 15.9 2.8 15.5C2.16667 15.0667 1.61667 14.5333 1.15 13.9C0.683333 13.2333 0.45 12.5 0.45 11.7C0.45 11.3333 0.516667 10.9667 0.65 10.6C0.65 10.5667 0.65 10.45 0.65 10.25C0.683333 10.05 0.716667 9.88333 0.75 9.75C1.11667 8.08333 1.96667 6.71667 3.3 5.65C4.63333 4.55 6.26667 3.7 8.2 3.1C10.1333 2.5 12.15 2.13333 14.25 2C14.65 1.96666 15.05 1.95 15.45 1.95C15.85 1.95 16.25 1.95 16.65 1.95C18.9833 1.95 21.3 2.1 23.6 2.4C25.9 2.7 27.9833 3 29.85 3.3C31.75 3.56667 33.25 3.71667 34.35 3.75C35.2833 2.78333 35.9667 2.25 36.4 2.15C36.5 2.11667 36.65 2.1 36.85 2.1C37.2167 2.1 37.55 2.2 37.85 2.4C38.15 2.56667 38.3 2.81666 38.3 3.15C38.3 3.45 38.1667 3.73333 37.9 4C37.6667 4.23333 37.3 4.51666 36.8 4.85C36.3 5.18333 35.8167 5.6 35.35 6.1C34.6833 6.76667 34.0833 7.51667 33.55 8.35C33.0167 9.18333 32.75 9.98333 32.75 10.75C32.75 11.3167 32.8833 11.8 33.15 12.2C33.2167 12.2667 33.25 12.3333 33.25 12.4C33.25 12.6667 33.1167 12.8 32.85 12.8C32.6167 12.8 32.3667 12.6667 32.1 12.4C31.8333 12.0667 31.7 11.35 31.7 10.25C31.7 9.58333 31.7667 8.86667 31.9 8.1C32.0333 7.33333 32.2667 6.63333 32.6 6C32.7333 5.76667 32.9167 5.5 33.15 5.2C33.4167 4.86667 33.6167 4.61667 33.75 4.45C31.35 4.41667 28.9167 4.28333 26.45 4.05C23.9833 3.81667 21.55 3.7 19.15 3.7C18.0167 3.7 16.75 3.78333 15.35 3.95C13.95 4.08333 12.5167 4.31667 11.05 4.65C9.58333 4.98333 8.21667 5.46667 6.95 6.1C5.68333 6.7 4.6 7.45 3.7 8.35C2.8 9.25 2.21667 10.3333 1.95 11.6C1.91667 11.7333 1.88333 11.85 1.85 11.95C1.85 12.05 1.85 12.15 1.85 12.25C1.85 12.8833 2.03333 13.4167 2.4 13.85C2.8 14.2833 3.25 14.65 3.75 14.95C4.25 15.2167 4.63333 15.4667 4.9 15.7C5.13333 15.8333 5.25 15.9667 5.25 16.1C5.25 16.2333 5.16667 16.3167 5 16.35C4.86667 16.3833 4.7 16.3667 4.5 16.3ZM9.45 32.35C9.35 32.35 9.15 32.3167 8.85 32.25C8.55 32.1833 8.26667 32.1 8 32C7.73333 31.9 7.58333 31.7833 7.55 31.65C7.45 31.0167 7.6 30.1167 8 28.95C8.43333 27.75 8.98333 26.4333 9.65 25C10.35 23.5667 11.0667 22.1333 11.8 20.7C12.5667 19.2667 13.2667 17.9833 13.9 16.85C14.5333 15.6833 15 14.8 15.3 14.2C15.5667 13.6333 15.7 13.1667 15.7 12.8C15.7 12.6333 15.6833 12.5167 15.65 12.45C15.65 12.35 15.6333 12.2667 15.6 12.2C15.6667 11.8 15.9167 11.2667 16.35 10.6C16.7833 9.93333 17.3167 9.26667 17.95 8.6C18.5833 7.93333 19.25 7.38333 19.95 6.95C20.6833 6.48333 21.3833 6.25 22.05 6.25C22.25 6.25 22.6 6.33333 23.1 6.5C23.6 6.63333 24.05 6.86667 24.45 7.2C24.85 7.53333 25.0167 7.96667 24.95 8.5C24.7167 8.33333 24.5167 8.25 24.35 8.25C23.5833 8.25 22.75 8.61667 21.85 9.35C20.95 10.0833 20.0167 11.0667 19.05 12.3C18.1167 13.5333 17.1833 14.8833 16.25 16.35C15.35 17.8167 14.5 19.3 13.7 20.8C12.9 22.2667 12.2 23.6333 11.6 24.9C11 26.1333 10.5333 27.1333 10.2 27.9C10.0667 28.2333 9.96667 28.5333 9.9 28.8C9.83333 29.0667 9.8 29.2833 9.8 29.45C9.8 29.9167 9.96667 30.15 10.3 30.15C10.5333 30.15 10.7833 30.0667 11.05 29.9C11.3167 29.7 11.5667 29.4667 11.8 29.2C12.1667 28.7667 12.5 28.3667 12.8 28C13.1 27.6 13.3667 27.4333 13.6 27.5C13.6333 27.5333 13.65 27.5833 13.65 27.65C13.65 27.85 13.55 28.0833 13.35 28.35C13.15 28.6167 13.0333 28.7667 13 28.8C12.7333 29.1333 12.4 29.5833 12 30.15C11.6333 30.7167 11.2333 31.2167 10.8 31.65C10.3667 32.1167 9.91667 32.35 9.45 32.35ZM26.7967 31.65C26.53 31.65 26.4634 31.5333 26.5967 31.3C26.6634 31.1 26.83 30.6 27.0967 29.8C27.3967 29 27.7467 28.0333 28.1467 26.9C28.5467 25.7667 28.9634 24.6167 29.3967 23.45C29.83 22.25 30.23 21.1833 30.5967 20.25C30.3634 20.55 29.9967 20.9833 29.4967 21.55C29.03 22.1167 28.53 22.7167 27.9967 23.35C27.4634 23.9833 26.9634 24.5333 26.4967 25C26.3967 25.1 26.33 25.15 26.2967 25.15C26.1967 25.15 26.1467 25.05 26.1467 24.85C26.1467 24.45 26.2467 24.0833 26.4467 23.75C27.18 22.8167 27.88 21.95 28.5467 21.15C29.2467 20.3167 29.88 19.5333 30.4467 18.8C30.1134 18.6 29.9467 18.35 29.9467 18.05C29.9467 17.5833 30.18 17.35 30.6467 17.35C30.8467 17.35 30.9967 17.3833 31.0967 17.45C31.13 17.4833 31.1634 17.5 31.1967 17.5C31.23 17.5 31.2634 17.5333 31.2967 17.6C31.4634 17.3667 31.5967 17.15 31.6967 16.95C31.83 16.75 31.9467 16.5333 32.0467 16.3C32.18 16 32.4467 15.4333 32.8467 14.6C33.28 13.7333 33.8134 12.7167 34.4467 11.55C35.08 10.3833 35.7967 9.18333 36.5967 7.95C37.43 6.68333 38.3134 5.51667 39.2467 4.45C40.2134 3.35 41.1967 2.46667 42.1967 1.8C43.23 1.13333 44.28 0.799998 45.3467 0.799998C45.48 0.799998 45.6134 0.816665 45.7467 0.849998C45.88 0.849998 46.0134 0.866664 46.1467 0.899997C46.98 1.06667 47.5634 1.36667 47.8967 1.8C48.23 2.2 48.3967 2.68333 48.3967 3.25C48.3967 3.65 48.3134 4.08333 48.1467 4.55C48.0134 4.98333 47.8134 5.41667 47.5467 5.85C46.88 7.01667 45.9967 8.2 44.8967 9.4C43.7967 10.5667 42.5634 11.7333 41.1967 12.9C39.8634 14.0333 38.5134 15.15 37.1467 16.25C35.8134 17.3167 34.5634 18.3333 33.3967 19.3C32.5967 21 31.98 22.5167 31.5467 23.85C31.1134 25.15 30.78 26.2 30.5467 27C30.9134 26.5333 31.4634 25.8667 32.1967 25C32.93 24.1333 33.7634 23.2 34.6967 22.2C35.63 21.2 36.5967 20.25 37.5967 19.35C38.5967 18.4167 39.5467 17.6667 40.4467 17.1C41.3467 16.5 42.1134 16.2 42.7467 16.2C43.5467 16.2 43.9467 16.6167 43.9467 17.45C43.9467 18.25 43.6634 19.1333 43.0967 20.1C42.53 21.0667 42.0634 21.8833 41.6967 22.55C41.23 23.5167 40.8467 24.45 40.5467 25.35C40.28 26.2167 40.1134 26.9333 40.0467 27.5C40.0134 27.6333 39.9967 27.7667 39.9967 27.9C39.9967 28 39.9967 28.1167 39.9967 28.25C39.9967 29.5833 40.4634 30.25 41.3967 30.25C41.8967 30.25 42.5634 29.95 43.3967 29.35C44.23 28.75 45.08 28.0333 45.9467 27.2C46.8134 26.3667 47.5967 25.5667 48.2967 24.8C49.03 24 49.53 23.4 49.7967 23C49.8967 22.9 50.0134 22.85 50.1467 22.85C50.28 22.85 50.38 22.9 50.4467 23C50.5134 23.1 50.5134 23.2333 50.4467 23.4C50.1134 23.9667 49.5967 24.6833 48.8967 25.55C48.1967 26.3833 47.4134 27.2333 46.5467 28.1C45.68 28.9333 44.83 29.65 43.9967 30.25C43.5634 30.5833 42.9967 30.8667 42.2967 31.1C41.63 31.3667 40.9634 31.5 40.2967 31.5C39.7634 31.5 39.2467 31.3667 38.7467 31.1C38.2467 30.8333 37.88 30.3333 37.6467 29.6C37.5467 29.3 37.4967 28.8833 37.4967 28.35C37.4967 28.1833 37.4967 28.0167 37.4967 27.85C37.4967 27.65 37.5134 27.45 37.5467 27.25C37.68 26.1833 38.03 25.0667 38.5967 23.9C39.1967 22.7 39.7467 21.6333 40.2467 20.7C40.38 20.4333 40.48 20.2 40.5467 20C40.6467 19.8 40.6967 19.6333 40.6967 19.5C40.6967 19.2333 40.58 19.1 40.3467 19.1C40.1134 19.1 39.7467 19.25 39.2467 19.55C38.7467 19.85 38.08 20.3667 37.2467 21.1C36.5134 21.7333 35.73 22.5667 34.8967 23.6C34.0967 24.6 33.2967 25.6333 32.4967 26.7C31.73 27.7667 31.0467 28.6833 30.4467 29.45C29.88 30.2167 29.48 30.6667 29.2467 30.8C29.08 30.9 28.6967 31.0667 28.0967 31.3C27.4967 31.5333 27.0634 31.65 26.7967 31.65ZM34.3467 17.05C35.68 16.15 37.13 15.0333 38.6967 13.7C40.2634 12.3333 41.73 10.8833 43.0967 9.35C44.4967 7.78333 45.5634 6.3 46.2967 4.9C46.6967 4.13333 46.8967 3.5 46.8967 3C46.8967 2.43333 46.6467 2.15 46.1467 2.15C45.9134 2.15 45.6467 2.21667 45.3467 2.35C45.0467 2.45 44.6967 2.65 44.2967 2.95C42.0634 4.68333 40.18 6.75 38.6467 9.15C37.1134 11.5167 35.68 14.15 34.3467 17.05ZM53.2926 31.75C51.7926 31.75 50.4926 31.4 49.3926 30.7C48.2926 30 47.7426 28.9333 47.7426 27.5C47.7426 26.7333 47.9759 25.8 48.4426 24.7C48.7759 23.9333 49.3926 23.05 50.2926 22.05C51.1926 21.05 52.2426 20.0833 53.4426 19.15C54.6426 18.1833 55.8593 17.4 57.0926 16.8C58.3259 16.1667 59.4426 15.85 60.4426 15.85C60.8093 15.85 61.1426 15.9 61.4426 16C62.0093 16.2 62.3926 16.5167 62.5926 16.95C62.8259 17.3833 62.9426 17.8333 62.9426 18.3C62.9426 18.7333 62.8759 19.15 62.7426 19.55C62.6093 19.95 62.4426 20.3 62.2426 20.6C61.6426 21.5 60.7759 22.3 59.6426 23C58.5426 23.7 57.4093 24.25 56.2426 24.65C55.1093 25.05 54.1759 25.2833 53.4426 25.35H53.3426C52.9093 25.35 52.6926 25.2167 52.6926 24.95C52.6926 24.7833 52.8259 24.7 53.0926 24.7C53.8926 24.6333 54.8926 24.2667 56.0926 23.6C57.3259 22.9 58.4093 22.1833 59.3426 21.45C59.7426 21.1167 60.2093 20.65 60.7426 20.05C61.3093 19.45 61.5926 18.8667 61.5926 18.3C61.5926 17.7 61.3093 17.4 60.7426 17.4C60.4426 17.4 60.1259 17.4667 59.7926 17.6C59.4926 17.7333 59.2426 17.8333 59.0426 17.9C58.0759 18.3667 57.0093 19.1 55.8426 20.1C54.6759 21.0667 53.6093 22.1667 52.6426 23.4C51.7093 24.6 51.0593 25.8167 50.6926 27.05C50.5926 27.3167 50.5259 27.5833 50.4926 27.85C50.4593 28.0833 50.4426 28.3167 50.4426 28.55C50.4426 29.35 50.6926 29.9167 51.1926 30.25C51.7259 30.5833 52.3593 30.75 53.0926 30.75C54.1926 30.75 55.3259 30.5167 56.4926 30.05C57.6593 29.55 58.7926 28.9167 59.8926 28.15C60.9926 27.3833 61.9926 26.5667 62.8926 25.7C63.8259 24.8 64.6093 23.9333 65.2426 23.1C65.3426 22.9667 65.4593 22.9 65.5926 22.9C65.7259 22.8667 65.8093 22.8833 65.8426 22.95C65.9759 22.9833 66.0426 23.0833 66.0426 23.25C66.0426 23.3833 66.0093 23.5167 65.9426 23.65C65.0093 24.95 63.8759 26.2167 62.5426 27.45C61.2426 28.6833 59.7926 29.7167 58.1926 30.55C56.6259 31.35 54.9926 31.75 53.2926 31.75ZM85.3809 34.1C83.9809 34.1 82.6142 33.9833 81.2809 33.75C79.9476 33.5167 78.7309 33.1167 77.6309 32.55C76.5309 32.0167 75.6476 31.2667 74.9809 30.3C74.3476 29.3 74.0309 28.0333 74.0309 26.5C74.0309 24.8333 74.4309 23.4333 75.2309 22.3C76.0309 21.1333 77.0809 20.2 78.3809 19.5C79.6809 18.7667 81.0809 18.2 82.5809 17.8C84.1142 17.4 85.5976 17.1167 87.0309 16.95C88.4976 16.75 89.7809 16.6333 90.8809 16.6C89.8809 15.4333 88.9809 13.9667 88.1809 12.2C87.3809 10.4333 86.9809 8.71667 86.9809 7.05C86.9809 6.45 87.0476 5.86667 87.1809 5.3C87.3142 4.73333 87.5309 4.2 87.8309 3.7C88.1642 3.1 88.6976 2.6 89.4309 2.2C90.1642 1.76666 90.9642 1.43333 91.8309 1.2C92.6976 0.966665 93.4976 0.849998 94.2309 0.849998C95.4642 0.849998 96.4809 1.18333 97.2809 1.85C98.0809 2.48333 98.8309 3.13333 99.5309 3.8C99.6976 3.96667 99.8976 4.16667 100.131 4.4C100.398 4.6 100.681 4.75 100.981 4.85C101.114 4.88333 101.264 4.91667 101.431 4.95C101.631 4.95 101.798 5 101.931 5.1C102.198 5.33333 102.431 5.68333 102.631 6.15C102.864 6.61667 103.048 7.03333 103.181 7.4C103.381 7.93333 103.481 8.63333 103.481 9.5C103.481 10.1667 103.398 10.7833 103.231 11.35C103.098 11.9167 102.881 12.2 102.581 12.2C102.414 12.2 102.198 12.05 101.931 11.75C101.531 11.2833 101.248 10.6667 101.081 9.9C100.914 9.1 100.664 8.38333 100.331 7.75C99.9309 6.88333 99.4976 6.08333 99.0309 5.35C98.5642 4.61667 97.9976 3.98333 97.3309 3.45C97.0642 3.15 96.6642 2.85 96.1309 2.55C95.6309 2.25 95.0476 2.1 94.3809 2.1C93.8809 2.1 93.4642 2.18333 93.1309 2.35C91.9642 2.81667 91.1309 3.58333 90.6309 4.65C90.1642 5.71667 89.9309 6.88333 89.9309 8.15C89.9309 9.68333 90.1809 11.2167 90.6809 12.75C91.1809 14.25 91.7476 15.4 92.3809 16.2C92.5476 16.4 92.9476 16.5333 93.5809 16.6C94.2476 16.6333 94.7142 16.6833 94.9809 16.75C95.5142 16.7833 95.8976 16.9 96.1309 17.1C96.3642 17.3 96.4809 17.5167 96.4809 17.75C96.4809 18.1167 96.2642 18.4333 95.8309 18.7C95.6642 18.8667 95.3809 18.95 94.9809 18.95C94.4142 18.95 93.7809 18.85 93.0809 18.65C92.3809 18.4167 91.7976 18.25 91.3309 18.15C90.3309 18.1833 89.1809 18.35 87.8809 18.65C86.5809 18.95 85.2476 19.3833 83.8809 19.95C82.5476 20.4833 81.2976 21.15 80.1309 21.95C78.9976 22.75 78.0642 23.6667 77.3309 24.7C76.6309 25.7 76.2642 26.8 76.2309 28C76.1976 29.3333 76.7142 30.4833 77.7809 31.45C78.8476 32.4167 80.7976 32.9 83.6309 32.9C84.9642 32.9 86.3976 32.7833 87.9309 32.55C89.4642 32.3167 90.9642 32 92.4309 31.6C93.9309 31.2333 95.3142 30.8333 96.5809 30.4C97.8476 29.9667 98.8809 29.5333 99.6809 29.1C100.314 28.8 101.081 28.35 101.981 27.75C102.881 27.1167 103.764 26.4 104.631 25.6C105.531 24.8 106.264 23.9833 106.831 23.15C107.431 22.2833 107.731 21.45 107.731 20.65C107.731 20.5833 107.731 20.5 107.731 20.4C107.731 20.3 107.714 20.2167 107.681 20.15C107.648 20.0167 107.714 19.95 107.881 19.95C108.048 19.95 108.164 19.9833 108.231 20.05C108.698 20.7167 108.931 21.45 108.931 22.25C108.931 23.3167 108.548 24.3667 107.781 25.4C107.048 26.4333 106.164 27.3667 105.131 28.2C104.098 29.0333 103.148 29.6833 102.281 30.15C101.248 30.75 99.9976 31.2833 98.5309 31.75C97.0976 32.25 95.5809 32.6667 93.9809 33C92.4142 33.3667 90.8809 33.6333 89.3809 33.8C87.8809 34 86.5476 34.1 85.3809 34.1ZM113.414 31.5C112.014 31.5 111.031 31.15 110.464 30.45C109.931 29.75 109.664 28.8833 109.664 27.85C109.664 26.8833 109.881 25.6667 110.314 24.2C110.781 22.7333 111.381 21.15 112.114 19.45C112.847 17.75 113.631 16.0667 114.464 14.4C115.331 12.7 116.181 11.15 117.014 9.75C117.881 8.31667 118.631 7.16667 119.264 6.3C119.897 5.46666 120.581 4.63333 121.314 3.8C122.047 2.96667 122.864 2.26667 123.764 1.7C124.664 1.13333 125.681 0.849998 126.814 0.849998C127.581 0.849998 128.231 1.06666 128.764 1.5C129.331 1.9 129.614 2.51667 129.614 3.35C129.614 3.68333 129.547 4.06666 129.414 4.5C129.314 4.93333 129.131 5.38333 128.864 5.85C126.831 9.38333 124.397 12.65 121.564 15.65C118.764 18.65 115.797 21.4333 112.664 24C112.531 24.5 112.397 24.95 112.264 25.35C112.164 25.75 112.081 26.0667 112.014 26.3C111.981 26.4667 111.964 26.65 111.964 26.85C111.964 27.0167 111.964 27.1833 111.964 27.35C111.964 28.15 112.097 28.85 112.364 29.45C112.631 30.05 113.081 30.35 113.714 30.35C114.314 30.35 115.047 30.0667 115.914 29.5C116.814 28.9 117.714 28.1833 118.614 27.35C119.514 26.4833 120.331 25.65 121.064 24.85C121.797 24.05 122.314 23.4333 122.614 23C122.714 22.9 122.814 22.85 122.914 22.85C123.047 22.85 123.147 22.9167 123.214 23.05C123.314 23.1833 123.314 23.35 123.214 23.55C122.881 24.1167 122.347 24.8167 121.614 25.65C120.881 26.4833 120.064 27.3333 119.164 28.2C118.264 29.0333 117.397 29.7667 116.564 30.4C115.531 31.1333 114.481 31.5 113.414 31.5ZM113.364 22C114.631 21.1333 115.947 20.0167 117.314 18.65C118.681 17.25 120.014 15.7333 121.314 14.1C122.647 12.4667 123.847 10.85 124.914 9.25C126.014 7.65 126.897 6.2 127.564 4.9C127.764 4.53333 127.897 4.21666 127.964 3.95C128.064 3.65 128.114 3.38333 128.114 3.15C128.114 2.51666 127.847 2.2 127.314 2.2C126.847 2.2 126.264 2.45 125.564 2.95C123.764 4.35 122.097 6.15 120.564 8.35C119.031 10.5167 117.664 12.8 116.464 15.2C115.264 17.6 114.231 19.8667 113.364 22ZM126.075 31.75C124.575 31.75 123.275 31.4 122.175 30.7C121.075 30 120.525 28.9333 120.525 27.5C120.525 26.7333 120.758 25.8 121.225 24.7C121.558 23.9333 122.175 23.05 123.075 22.05C123.975 21.05 125.025 20.0833 126.225 19.15C127.425 18.1833 128.641 17.4 129.875 16.8C131.108 16.1667 132.225 15.85 133.225 15.85C133.591 15.85 133.925 15.9 134.225 16C134.791 16.2 135.175 16.5167 135.375 16.95C135.608 17.3833 135.725 17.8333 135.725 18.3C135.725 18.7333 135.658 19.15 135.525 19.55C135.391 19.95 135.225 20.3 135.025 20.6C134.425 21.5 133.558 22.3 132.425 23C131.325 23.7 130.191 24.25 129.025 24.65C127.891 25.05 126.958 25.2833 126.225 25.35H126.125C125.691 25.35 125.475 25.2167 125.475 24.95C125.475 24.7833 125.608 24.7 125.875 24.7C126.675 24.6333 127.675 24.2667 128.875 23.6C130.108 22.9 131.191 22.1833 132.125 21.45C132.525 21.1167 132.991 20.65 133.525 20.05C134.091 19.45 134.375 18.8667 134.375 18.3C134.375 17.7 134.091 17.4 133.525 17.4C133.225 17.4 132.908 17.4667 132.575 17.6C132.275 17.7333 132.025 17.8333 131.825 17.9C130.858 18.3667 129.791 19.1 128.625 20.1C127.458 21.0667 126.391 22.1667 125.425 23.4C124.491 24.6 123.841 25.8167 123.475 27.05C123.375 27.3167 123.308 27.5833 123.275 27.85C123.241 28.0833 123.225 28.3167 123.225 28.55C123.225 29.35 123.475 29.9167 123.975 30.25C124.508 30.5833 125.141 30.75 125.875 30.75C126.975 30.75 128.108 30.5167 129.275 30.05C130.441 29.55 131.575 28.9167 132.675 28.15C133.775 27.3833 134.775 26.5667 135.675 25.7C136.608 24.8 137.391 23.9333 138.025 23.1C138.125 22.9667 138.241 22.9 138.375 22.9C138.508 22.8667 138.591 22.8833 138.625 22.95C138.758 22.9833 138.825 23.0833 138.825 23.25C138.825 23.3833 138.791 23.5167 138.725 23.65C137.791 24.95 136.658 26.2167 135.325 27.45C134.025 28.6833 132.575 29.7167 130.975 30.55C129.408 31.35 127.775 31.75 126.075 31.75ZM136.233 31.65C135.967 31.65 135.883 31.5333 135.983 31.3C136.117 31.0667 136.35 30.4833 136.683 29.55C137.05 28.5833 137.45 27.45 137.883 26.15C138.35 24.85 138.8 23.6 139.233 22.4C138.9 22.9 138.533 23.3833 138.133 23.85C137.767 24.3167 137.45 24.7 137.183 25C137.083 25.1 137.017 25.15 136.983 25.15C136.883 25.15 136.833 25.05 136.833 24.85C136.833 24.45 136.933 24.0833 137.133 23.75C137.833 22.85 138.367 22.15 138.733 21.65C139.1 21.1167 139.4 20.65 139.633 20.25C139.9 19.8167 140.167 19.3333 140.433 18.8C140.5 18.4333 140.617 17.9833 140.783 17.45C140.983 16.9167 141.433 16.65 142.133 16.65C143.167 16.65 143.683 16.8667 143.683 17.3C143.683 17.4333 143.65 17.5833 143.583 17.75C143.517 17.8833 143.45 18.0333 143.383 18.2C142.983 19.1 142.55 20.1333 142.083 21.3C141.617 22.4667 141.183 23.5667 140.783 24.6C140.417 25.6333 140.133 26.4333 139.933 27C140.3 26.5333 140.85 25.8833 141.583 25.05C142.317 24.1833 143.15 23.25 144.083 22.25C145.05 21.2167 146.033 20.25 147.033 19.35C148.067 18.4167 149.033 17.65 149.933 17.05C150.833 16.45 151.6 16.15 152.233 16.15C153 16.15 153.383 16.5833 153.383 17.45C153.383 18.1167 153.117 18.9833 152.583 20.05C152.35 20.55 152.033 21.2333 151.633 22.1C151.233 22.9333 150.917 23.5667 150.683 24C151.283 23.4667 151.967 22.8833 152.733 22.25C153.5 21.5833 154.3 20.9667 155.133 20.4C156 19.8333 156.8 19.4167 157.533 19.15C157.7 19.0833 158.033 18.9833 158.533 18.85C159.033 18.6833 159.467 18.6 159.833 18.6C160.333 18.6 160.583 18.7667 160.583 19.1C160.583 19.3333 160.467 19.5833 160.233 19.85C159.667 20.7167 159.15 21.65 158.683 22.65C158.25 23.6167 157.9 24.5333 157.633 25.4C157.367 26.2667 157.2 26.9667 157.133 27.5C157.1 27.6333 157.083 27.7667 157.083 27.9C157.083 28 157.083 28.1167 157.083 28.25C157.083 29.5833 157.517 30.25 158.383 30.25C158.917 30.25 159.6 29.9667 160.433 29.4C161.267 28.8 162.117 28.0833 162.983 27.25C163.85 26.3833 164.633 25.5667 165.333 24.8C166.067 24 166.567 23.4 166.833 23C166.933 22.9 167.033 22.85 167.133 22.85C167.267 22.85 167.367 22.9 167.433 23C167.533 23.1 167.55 23.2333 167.483 23.4C167.183 23.9667 166.667 24.6833 165.933 25.55C165.233 26.3833 164.433 27.2333 163.533 28.1C162.667 28.9333 161.817 29.65 160.983 30.25C160.55 30.5833 160 30.8667 159.333 31.1C158.7 31.3667 158.05 31.5 157.383 31.5C156.783 31.5 156.233 31.3667 155.733 31.1C155.267 30.8333 154.917 30.3333 154.683 29.6C154.583 29.3 154.533 28.9167 154.533 28.45C154.533 27.7167 154.633 26.8833 154.833 25.95C155.033 25.0167 155.25 24.2333 155.483 23.6C155.65 23.1333 155.867 22.6167 156.133 22.05C156.433 21.45 156.7 20.95 156.933 20.55C155.9 20.95 154.9 21.55 153.933 22.35C152.967 23.15 152.083 23.9667 151.283 24.8C150.517 25.6 149.867 26.2667 149.333 26.8C149.2 27.1667 148.933 27.4667 148.533 27.7C148.167 27.9333 147.817 28.05 147.483 28.05C146.983 28.05 146.733 27.8333 146.733 27.4C146.733 27.2333 146.783 27.0333 146.883 26.8C147.217 26 147.583 25.1833 147.983 24.35C148.417 23.4833 148.8 22.7 149.133 22C149.5 21.3 149.75 20.8167 149.883 20.55C150.15 20.0833 150.283 19.7167 150.283 19.45C150.283 19.1833 150.167 19.05 149.933 19.05C149.7 19.05 149.317 19.2 148.783 19.5C148.25 19.8 147.55 20.3333 146.683 21.1C145.983 21.7333 145.217 22.5667 144.383 23.6C143.55 24.6 142.75 25.6333 141.983 26.7C141.217 27.7667 140.533 28.6833 139.933 29.45C139.367 30.2167 138.967 30.6667 138.733 30.8C138.533 30.9 138.133 31.0667 137.533 31.3C136.967 31.5333 136.533 31.65 136.233 31.65ZM170.376 31.75C168.876 31.75 167.576 31.4 166.476 30.7C165.376 30 164.826 28.9333 164.826 27.5C164.826 26.7333 165.059 25.8 165.526 24.7C165.859 23.9333 166.476 23.05 167.376 22.05C168.276 21.05 169.326 20.0833 170.526 19.15C171.726 18.1833 172.943 17.4 174.176 16.8C175.409 16.1667 176.526 15.85 177.526 15.85C177.893 15.85 178.226 15.9 178.526 16C179.093 16.2 179.476 16.5167 179.676 16.95C179.909 17.3833 180.026 17.8333 180.026 18.3C180.026 18.7333 179.959 19.15 179.826 19.55C179.693 19.95 179.526 20.3 179.326 20.6C178.726 21.5 177.859 22.3 176.726 23C175.626 23.7 174.493 24.25 173.326 24.65C172.193 25.05 171.259 25.2833 170.526 25.35H170.426C169.993 25.35 169.776 25.2167 169.776 24.95C169.776 24.7833 169.909 24.7 170.176 24.7C170.976 24.6333 171.976 24.2667 173.176 23.6C174.409 22.9 175.493 22.1833 176.426 21.45C176.826 21.1167 177.293 20.65 177.826 20.05C178.393 19.45 178.676 18.8667 178.676 18.3C178.676 17.7 178.393 17.4 177.826 17.4C177.526 17.4 177.209 17.4667 176.876 17.6C176.576 17.7333 176.326 17.8333 176.126 17.9C175.159 18.3667 174.093 19.1 172.926 20.1C171.759 21.0667 170.693 22.1667 169.726 23.4C168.793 24.6 168.143 25.8167 167.776 27.05C167.676 27.3167 167.609 27.5833 167.576 27.85C167.543 28.0833 167.526 28.3167 167.526 28.55C167.526 29.35 167.776 29.9167 168.276 30.25C168.809 30.5833 169.443 30.75 170.176 30.75C171.276 30.75 172.409 30.5167 173.576 30.05C174.743 29.55 175.876 28.9167 176.976 28.15C178.076 27.3833 179.076 26.5667 179.976 25.7C180.909 24.8 181.693 23.9333 182.326 23.1C182.426 22.9667 182.543 22.9 182.676 22.9C182.809 22.8667 182.893 22.8833 182.926 22.95C183.059 22.9833 183.126 23.0833 183.126 23.25C183.126 23.3833 183.093 23.5167 183.026 23.65C182.093 24.95 180.959 26.2167 179.626 27.45C178.326 28.6833 176.876 29.7167 175.276 30.55C173.709 31.35 172.076 31.75 170.376 31.75ZM179.285 31.65C179.051 31.65 178.985 31.5333 179.085 31.3C179.185 31.1 179.368 30.65 179.635 29.95C179.901 29.2167 180.201 28.35 180.535 27.35C180.901 26.35 181.268 25.3167 181.635 24.25C182.001 23.1833 182.335 22.1833 182.635 21.25C182.968 20.3167 183.235 19.5833 183.435 19.05C183.501 18.85 183.568 18.5667 183.635 18.2C183.701 17.8 183.835 17.45 184.035 17.15C184.268 16.8167 184.651 16.65 185.185 16.65C186.185 16.65 186.685 16.8833 186.685 17.35C186.685 17.5167 186.601 17.8 186.435 18.2C186.035 19.1 185.601 20.1333 185.135 21.3C184.668 22.4667 184.251 23.5667 183.885 24.6C183.518 25.6333 183.235 26.4333 183.035 27C183.368 26.5333 183.901 25.8667 184.635 25C185.401 24.1333 186.251 23.2 187.185 22.2C188.118 21.2 189.085 20.2333 190.085 19.3C191.118 18.3667 192.068 17.6167 192.935 17.05C193.835 16.45 194.601 16.15 195.235 16.15C196.035 16.15 196.435 16.5833 196.435 17.45C196.435 17.75 196.351 18.2 196.185 18.8C195.885 19.6333 195.501 20.45 195.035 21.25C194.568 22.0167 194.151 22.8333 193.785 23.7C193.151 25.2667 192.785 26.5333 192.685 27.5C192.651 27.6333 192.635 27.7667 192.635 27.9C192.635 28 192.635 28.1167 192.635 28.25C192.635 29.5833 193.085 30.25 193.985 30.25C194.485 30.25 195.151 29.95 195.985 29.35C196.818 28.75 197.668 28.0333 198.535 27.2C199.435 26.3667 200.235 25.5667 200.935 24.8C201.635 24 202.118 23.4 202.385 23C202.485 22.9 202.585 22.85 202.685 22.85C202.818 22.85 202.918 22.9 202.985 23C203.085 23.1 203.101 23.2333 203.035 23.4C202.735 23.9667 202.218 24.6833 201.485 25.55C200.785 26.3833 200.001 27.2333 199.135 28.1C198.268 28.9333 197.418 29.65 196.585 30.25C196.085 30.5833 195.468 30.8833 194.735 31.15C194.001 31.4167 193.268 31.5333 192.535 31.5C191.601 31.4 190.935 31.0833 190.535 30.55C190.135 29.9833 189.935 29.3167 189.935 28.55C189.935 27.65 190.101 26.7 190.435 25.7C190.801 24.6667 191.201 23.7 191.635 22.8C192.068 21.9 192.418 21.2167 192.685 20.75C192.951 20.2167 193.085 19.8 193.085 19.5C193.085 19.2333 192.968 19.1 192.735 19.1C192.501 19.1 192.151 19.25 191.685 19.55C191.218 19.85 190.585 20.3667 189.785 21.1C189.051 21.7333 188.268 22.5667 187.435 23.6C186.601 24.6 185.785 25.6333 184.985 26.7C184.218 27.7667 183.535 28.6833 182.935 29.45C182.368 30.2167 181.968 30.6667 181.735 30.8C181.568 30.9 181.185 31.0667 180.585 31.3C180.018 31.5333 179.585 31.65 179.285 31.65ZM203.641 31.5C203.041 31.5 202.491 31.3667 201.991 31.1C201.525 30.8333 201.175 30.3333 200.941 29.6C200.908 29.5 200.875 29.4 200.841 29.3C200.841 29.2 200.841 29.0833 200.841 28.95C200.841 28.2833 200.991 27.45 201.291 26.45C201.591 25.45 201.958 24.4833 202.391 23.55C202.191 23.8167 201.958 24.15 201.691 24.55C201.425 24.9167 201.041 25.4 200.541 26C200.408 26.1333 200.258 26.2 200.091 26.2C199.858 26.2 199.741 26.0667 199.741 25.8C199.741 25.6 199.808 25.4333 199.941 25.3C200.808 24.2 201.575 23.2167 202.241 22.35C202.941 21.4833 203.458 20.75 203.791 20.15C203.791 20.0833 203.891 19.8833 204.091 19.55C204.291 19.1833 204.558 18.6833 204.891 18.05C204.625 18.0833 204.391 18.1167 204.191 18.15C204.025 18.15 203.875 18.15 203.741 18.15C203.508 18.15 203.308 18.05 203.141 17.85C202.975 17.65 202.958 17.4 203.091 17.1C203.258 16.6333 203.625 16.3667 204.191 16.3C204.758 16.2333 205.258 16.1833 205.691 16.15C205.725 16.0833 205.791 16.05 205.891 16.05C206.291 15.3167 206.675 14.6 207.041 13.9C207.408 13.2 207.708 12.6167 207.941 12.15C208.208 11.6833 208.341 11.4333 208.341 11.4C209.008 10.3333 209.441 9.63333 209.641 9.3C209.841 8.93333 210.108 8.71667 210.441 8.65C210.808 8.61667 211.191 8.63333 211.591 8.7C212.025 8.76667 212.308 8.91667 212.441 9.15C212.541 9.28333 212.591 9.45 212.591 9.65C212.591 9.95 212.525 10.25 212.391 10.55C212.258 10.8167 212.125 11.0333 211.991 11.2C211.858 11.4333 211.675 11.6 211.441 11.7C211.241 11.7667 211.058 11.9667 210.891 12.3C210.558 12.9333 210.191 13.6167 209.791 14.35C209.391 15.0833 208.975 15.7833 208.541 16.45L209.141 16.4C209.941 16.3333 210.691 16.25 211.391 16.15C212.125 16.05 212.958 16.0167 213.891 16.05C214.058 16.05 214.225 16.0833 214.391 16.15C214.591 16.1833 214.691 16.25 214.691 16.35C214.691 16.4833 214.258 16.6667 213.391 16.9C213.058 17.0333 212.325 17.1833 211.191 17.35C210.091 17.4833 208.958 17.6167 207.791 17.75C207.458 18.3833 207.158 18.9167 206.891 19.35C206.625 19.75 206.441 20.05 206.341 20.25C205.608 21.7833 204.941 23.1833 204.341 24.45C203.775 25.6833 203.458 26.7 203.391 27.5C203.358 27.6333 203.341 27.7667 203.341 27.9C203.341 28 203.341 28.1167 203.341 28.25C203.341 29.5833 203.775 30.25 204.641 30.25C205.175 30.25 205.858 29.9667 206.691 29.4C207.525 28.8 208.375 28.0833 209.241 27.25C210.108 26.3833 210.891 25.5667 211.591 24.8C212.325 24 212.825 23.4 213.091 23C213.191 22.9 213.291 22.85 213.391 22.85C213.525 22.85 213.625 22.9 213.691 23C213.791 23.1 213.808 23.2333 213.741 23.4C213.441 23.9667 212.925 24.6833 212.191 25.55C211.491 26.3833 210.691 27.2333 209.791 28.1C208.925 28.9333 208.075 29.65 207.241 30.25C206.808 30.5833 206.258 30.8667 205.591 31.1C204.958 31.3667 204.308 31.5 203.641 31.5ZM233.292 32.6C233.059 32.6333 232.826 32.65 232.592 32.65C232.359 32.65 232.126 32.65 231.892 32.65C229.792 32.65 228.042 32.3 226.642 31.6C225.276 30.9333 224.242 30.0667 223.542 29C222.876 27.9 222.542 26.75 222.542 25.55C222.542 24.05 223.042 22.5833 224.042 21.15C225.076 19.7167 226.559 18.6333 228.492 17.9C229.626 17.4667 230.709 17.2 231.742 17.1C232.809 17 233.792 16.95 234.692 16.95C235.592 16.9167 236.342 16.8667 236.942 16.8C236.142 16.1 235.326 15.25 234.492 14.25C233.659 13.2167 232.959 12.1 232.392 10.9C231.826 9.7 231.542 8.51667 231.542 7.35C231.542 6.81667 231.609 6.3 231.742 5.8C231.876 5.3 232.109 4.83333 232.442 4.4C232.809 3.9 233.376 3.48333 234.142 3.15C234.942 2.78333 235.809 2.5 236.742 2.3C237.709 2.1 238.592 2 239.392 2C240.426 2 241.442 2.25 242.442 2.75C243.476 3.25 244.309 3.88333 244.942 4.65C245.209 4.31667 245.509 4.01667 245.842 3.75C246.176 3.48333 246.526 3.33333 246.892 3.3C246.959 3.26667 247.059 3.25 247.192 3.25C247.459 3.25 247.676 3.31667 247.842 3.45C248.042 3.55 248.142 3.7 248.142 3.9C248.142 4.06667 248.042 4.23333 247.842 4.4C247.709 4.6 247.459 4.81667 247.092 5.05C246.759 5.28333 246.409 5.58333 246.042 5.95C245.576 6.38333 245.159 6.88333 244.792 7.45C244.426 7.98333 244.242 8.53333 244.242 9.1C244.242 9.43333 244.342 9.75 244.542 10.05C244.576 10.0833 244.592 10.1333 244.592 10.2C244.592 10.3667 244.492 10.45 244.292 10.45C244.126 10.45 243.959 10.3667 243.792 10.2C243.626 9.96667 243.542 9.46667 243.542 8.7C243.542 8.23333 243.592 7.75 243.692 7.25C243.792 6.71667 243.959 6.23333 244.192 5.8C244.226 5.76667 244.242 5.73333 244.242 5.7C244.276 5.63333 244.309 5.58333 244.342 5.55C243.809 4.95 243.059 4.4 242.092 3.9C241.159 3.4 240.192 3.15 239.192 3.15C238.826 3.15 238.459 3.2 238.092 3.3C236.959 3.53333 236.176 4.06666 235.742 4.9C235.309 5.73333 235.092 6.68333 235.092 7.75C235.092 8.71667 235.226 9.73333 235.492 10.8C235.792 11.8667 236.159 12.85 236.592 13.75C237.026 14.65 237.459 15.3833 237.892 15.95C238.292 16.4833 238.492 16.8667 238.492 17.1C238.492 17.3667 238.192 17.55 237.592 17.65C236.059 17.8167 234.559 18.1667 233.092 18.7C231.659 19.2333 230.509 19.7167 229.642 20.15C228.109 20.9167 226.959 21.85 226.192 22.95C225.426 24.05 225.042 25.1333 225.042 26.2C225.042 27.6333 225.676 28.9 226.942 30C228.209 31.0667 230.009 31.6 232.342 31.6C232.576 31.6 232.809 31.6 233.042 31.6C233.276 31.6 233.509 31.5833 233.742 31.55C235.776 31.35 237.709 30.8667 239.542 30.1C241.409 29.3333 243.059 28.2333 244.492 26.8C245.926 25.3333 246.976 23.4667 247.642 21.2C247.809 20.7333 247.909 20.25 247.942 19.75C248.009 19.25 248.042 18.7833 248.042 18.35C248.042 17.8833 248.009 17.4667 247.942 17.1C247.909 16.7333 247.842 16.4667 247.742 16.3C246.776 16.8667 245.759 17.4333 244.692 18C243.659 18.5333 242.709 19.0833 241.842 19.65C241.376 19.9167 240.742 20.4167 239.942 21.15C239.176 21.85 238.492 22.6167 237.892 23.45C237.292 24.2833 236.992 25.05 236.992 25.75C236.992 26.25 237.192 26.65 237.592 26.95C237.859 27.15 237.992 27.35 237.992 27.55C237.992 27.65 237.909 27.7 237.742 27.7C237.609 27.7 237.476 27.6667 237.342 27.6C236.909 27.4667 236.576 27.1167 236.342 26.55C236.142 25.9833 236.042 25.3333 236.042 24.6C236.042 23.5667 236.242 22.65 236.642 21.85C237.009 21.15 237.526 20.55 238.192 20.05C238.892 19.5167 239.726 18.9667 240.692 18.4C241.892 17.7 243.176 17.0167 244.542 16.35C245.909 15.6833 247.192 15.05 248.392 14.45C249.592 13.8167 250.576 13.2 251.342 12.6C252.109 11.9667 252.492 11.3333 252.492 10.7C252.492 10.6 252.492 10.5 252.492 10.4C252.492 10.3 252.459 10.2 252.392 10.1C252.392 10.0667 252.376 10.05 252.342 10.05C252.342 10.0167 252.342 9.98333 252.342 9.95C252.342 9.81667 252.392 9.75 252.492 9.75C252.659 9.75 252.809 9.86667 252.942 10.1C253.076 10.4 253.142 10.7333 253.142 11.1C253.142 12 252.692 12.85 251.792 13.65C250.892 14.45 249.776 15.2333 248.442 16C248.809 16.4 249.209 17.0167 249.642 17.85C250.076 18.6833 250.292 19.5333 250.292 20.4C250.292 20.5333 250.292 20.6667 250.292 20.8C250.292 20.9 250.276 21.0167 250.242 21.15C249.909 23.0833 249.142 24.75 247.942 26.15C246.776 27.5167 245.359 28.6667 243.692 29.6C242.026 30.5 240.276 31.1833 238.442 31.65C236.642 32.15 234.926 32.4667 233.292 32.6ZM276.127 33.3C274.394 33.3 272.794 33 271.327 32.4C269.894 31.8333 268.744 30.95 267.877 29.75C267.044 28.5167 266.627 26.95 266.627 25.05C266.627 23.9833 266.777 22.8333 267.077 21.6C267.544 19.6333 268.31 17.6667 269.377 15.7C270.477 13.7333 271.777 11.8833 273.277 10.15C274.81 8.41667 276.477 6.88333 278.277 5.55C280.077 4.18333 281.927 3.11667 283.827 2.35C285.76 1.55 287.677 1.15 289.577 1.15C290.144 1.15 290.727 1.2 291.327 1.3C292.66 1.53333 293.644 2.03333 294.277 2.8C294.944 3.53333 295.277 4.38333 295.277 5.35C295.277 6.48333 294.91 7.61667 294.177 8.75C293.444 9.88333 292.477 10.9667 291.277 12C290.11 13 288.827 13.9 287.427 14.7C286.06 15.5 284.71 16.15 283.377 16.65C282.044 17.15 280.86 17.4333 279.827 17.5C279.194 17.5333 278.877 17.35 278.877 16.95C278.877 16.75 278.977 16.55 279.177 16.35C279.41 16.1167 279.727 15.9833 280.127 15.95C282.727 15.7167 285.144 14.9333 287.377 13.6C289.644 12.2333 291.377 10.3833 292.577 8.05C292.844 7.55 293.044 7.05 293.177 6.55C293.344 6.01667 293.427 5.51667 293.427 5.05C293.427 4.31667 293.21 3.7 292.777 3.2C292.377 2.66666 291.66 2.4 290.627 2.4C289.494 2.4 288.16 2.75 286.627 3.45C285.094 4.11667 283.477 5.06667 281.777 6.3C280.11 7.53333 278.46 9 276.827 10.7C275.227 12.3667 273.777 14.2 272.477 16.2C271.21 18.1667 270.227 20.25 269.527 22.45C269.094 23.7833 268.877 25.0167 268.877 26.15C268.877 28.1833 269.577 29.6833 270.977 30.65C272.377 31.5833 274.194 32.05 276.427 32.05C278.36 32.05 280.477 31.7167 282.777 31.05C285.11 30.3833 287.377 29.3667 289.577 28C291.777 26.6 293.627 24.8333 295.127 22.7C295.227 22.5667 295.344 22.5 295.477 22.5C295.61 22.5 295.727 22.5667 295.827 22.7C295.96 22.8333 295.977 22.9667 295.877 23.1C294.144 25.5 292.144 27.45 289.877 28.95C287.644 30.45 285.327 31.55 282.927 32.25C280.527 32.95 278.26 33.3 276.127 33.3ZM297.778 31.55C296.845 31.55 296.028 31.3333 295.328 30.9C294.161 30.2 293.578 28.9333 293.578 27.1C293.578 26.3333 293.711 25.45 293.978 24.45C294.211 23.6167 294.628 22.7167 295.228 21.75C295.828 20.75 296.528 19.8 297.328 18.9C298.161 18 299.061 17.2667 300.028 16.7C300.995 16.1333 301.961 15.85 302.928 15.85C303.328 15.85 303.678 15.9 303.978 16C304.378 16.1333 304.711 16.3833 304.978 16.75C305.278 17.0833 305.428 17.5167 305.428 18.05C305.428 18.6167 305.278 18.9333 304.978 19C304.711 19.0667 304.578 19 304.578 18.8C304.578 18.7333 304.578 18.6667 304.578 18.6C304.611 18.5333 304.628 18.4833 304.628 18.45C304.628 18.1833 304.545 17.95 304.378 17.75C304.245 17.5167 303.978 17.4 303.578 17.4C303.045 17.4 302.378 17.6833 301.578 18.25C300.811 18.8167 300.011 19.5833 299.178 20.55C298.378 21.4833 297.661 22.5167 297.028 23.65C296.428 24.7833 296.028 25.9167 295.828 27.05C295.795 27.2167 295.761 27.3833 295.728 27.55C295.728 27.6833 295.728 27.8333 295.728 28C295.728 28.7667 295.895 29.4167 296.228 29.95C296.595 30.45 297.161 30.7 297.928 30.7C298.861 30.7 299.761 30.35 300.628 29.65C301.495 28.9167 302.261 28.05 302.928 27.05C303.628 26.05 304.145 25.1667 304.478 24.4C304.745 23.8 304.928 23.2833 305.028 22.85C305.128 22.4167 305.178 22.05 305.178 21.75C305.178 21.4833 305.145 21.25 305.078 21.05C305.045 20.85 304.995 20.6833 304.928 20.55C304.861 20.35 304.828 20.2 304.828 20.1C304.828 19.8333 304.928 19.6167 305.128 19.45C305.361 19.2833 305.595 19.2 305.828 19.2C306.028 19.2 306.245 19.2667 306.478 19.4C306.745 19.4667 307.111 19.5167 307.578 19.55C308.045 19.5833 308.545 19.6 309.078 19.6C309.645 19.6 310.211 19.5833 310.778 19.55C311.378 19.5167 311.895 19.45 312.328 19.35C312.395 19.3167 312.495 19.3 312.628 19.3C312.861 19.3 312.978 19.3667 312.978 19.5C312.978 19.6333 312.861 19.75 312.628 19.85C311.461 20.3833 310.411 20.6667 309.478 20.7C308.578 20.7333 307.795 20.75 307.128 20.75C307.195 21.5833 307.011 22.4833 306.578 23.45C306.145 24.3833 305.695 25.2167 305.228 25.95C304.661 26.7833 304.011 27.6333 303.278 28.5C302.545 29.3667 301.728 30.1 300.828 30.7C299.928 31.2667 298.911 31.55 297.778 31.55Z" fill="#36454F"/>
</svg>
